<?xml version="1.0" standalone="no"?>
<!DOCTYPE svg PUBLIC "-//W3C//DTD SVG 1.1//EN" "http://www.w3.org/Graphics/SVG/1.1/DTD/svg11.dtd" >
<svg xmlns="http://www.w3.org/2000/svg">
<metadata></metadata>
<defs>
<font id="libre_caslon_displayregular" horiz-adv-x="1503" >
<font-face units-per-em="2048" ascent="1638" descent="-410" />
<missing-glyph horiz-adv-x="491" />
<glyph unicode="&#xfb00;" horiz-adv-x="1026" d="M37 836l10 32h127v133q0 188 103 316.5t272 128.5q114 0 178 -80q46 62 117.5 98.5t148.5 36.5q80 0 139.5 -36t59.5 -85q0 -31 -22 -52t-56 -21q-60 0 -78 84q-10 49 -26 66.5t-49 17.5q-94 0 -138 -107q-17 -42 -22.5 -97.5t-5.5 -170.5v-232h190l-10 -32h-180v-799 l178 -21v-16h-416v16l105 17v803h-355v-799l137 -21v-16h-395v16l125 17v803h-137zM662 868v428q0 60 -29.5 91.5t-85.5 31.5q-57 0 -98.5 -17t-74.5 -59t-50 -120.5t-17 -194.5v-160h355z" />
<glyph unicode="&#xfb01;" horiz-adv-x="980" d="M823 33l125 -17v-16h-383v16l125 17v778l-203 25h-180v-799l158 -21v-16h-416v16l125 17v803h-137l10 32h127v191q0 197 106 320.5t275 123.5q106 0 178 -51.5t72 -126.5q0 -38 -21.5 -61t-58.5 -23q-66 0 -84 90q-20 90 -42 118t-71 28q-103 0 -162 -104.5t-59 -287.5 v-217h191l309 23h16v-858z" />
<glyph unicode="&#xfb02;" horiz-adv-x="966" d="M37 836l10 32h127v191q0 195 106 319.5t273 124.5q252 0 252 -237v-1233l125 -17v-16h-363v16l105 17v803h-365v-799l137 -21v-16h-395v16l125 17v803h-137zM672 868v469q0 140 -125 140q-114 0 -177 -103t-63 -289v-217h365z" />
<glyph unicode="&#xfb03;" horiz-adv-x="1468" d="M37 836l10 32h127v133q0 188 103 316.5t272 128.5q133 0 192 -100q109 157 301 157q106 0 178 -51.5t72 -126.5q0 -38 -21.5 -61t-58.5 -23q-66 0 -84 90q-20 90 -41.5 118t-70.5 28q-103 0 -162 -104.5t-59 -287.5v-217h190l309 23h17v-858l125 -17v-16h-383v16l125 17 v790l-203 13h-180v-799l157 -21v-16h-415v16l125 17v803h-355v-799l137 -21v-16h-395v16l125 17v803h-137zM662 868v396q0 82 -29 118.5t-86 36.5q-53 0 -93.5 -17t-75 -58.5t-53 -121t-18.5 -194.5v-160h355z" />
<glyph unicode="&#xfb04;" horiz-adv-x="1454" d="M37 836l10 32h127v133q0 188 103 316.5t272 128.5q133 0 192 -100q52 75 128.5 116t170.5 41q106 0 179 -51t73 -125v-1294l125 -17v-16h-362v16l104 17v803h-364v-799l137 -21v-16h-395v16l125 17v803h-355v-799l137 -21v-16h-395v16l125 17v803h-137zM1034 1477 q-114 0 -176.5 -103t-62.5 -289v-217h364v463q0 76 -30.5 111t-94.5 35zM662 868v396q0 82 -29 118.5t-86 36.5q-53 0 -93.5 -17t-75 -58.5t-53 -121t-18.5 -194.5v-160h355z" />
<glyph unicode="ft" horiz-adv-x="1062" d="M41 838l10 30h127v191q0 197 106 320.5t275 123.5q106 0 178 -51.5t72 -126.5q0 -38 -21.5 -61t-58.5 -23q-66 0 -84 90q-20 90 -42 118t-71 28q-103 0 -162 -104.5t-59 -287.5v-217h353l124 176l9 -2v-174h233l-12 -32h-221v-627q0 -71 22 -107q24 -49 92 -49 q61 0 131 70l9 -6q-31 -63 -87 -100t-120 -37q-68 0 -117 36q-34 25 -48.5 63.5t-14.5 102.5v656h-353v-801l158 -21v-16h-416v16l125 17v805h-137z" />
<glyph unicode="ffb" horiz-adv-x="1941" d="M39 836l10 32h127v133q0 188 103 316.5t272 128.5q129 0 190 -96q46 73 117 113t156 40q106 0 179 -51t73 -125v-555q108 117 252 117q154 0 248 -116.5t94 -305.5q0 -211 -117 -349t-295 -138q-128 0 -229 75h-9l-61 -55h-16v836h-336v-799l137 -21v-16h-395v16l125 17 v803h-355v-799l137 -21v-16h-395v16l125 17v803h-137zM1446 0q118 0 189 116t71 308q0 187 -69 295t-189 108q-115 0 -182 -86v-534q0 -94 49 -150.5t131 -56.5zM1008 1477q-99 0 -155 -103.5t-56 -288.5v-217h336v463q0 76 -30.5 111t-94.5 35zM664 868v428 q0 60 -29.5 91.5t-85.5 31.5q-57 0 -98.5 -17t-74.5 -59t-50 -120.5t-17 -194.5v-160h355z" />
<glyph unicode="ffh" horiz-adv-x="1896" d="M37 836l10 32h127v133q0 188 103 316.5t272 128.5q129 0 190 -96q46 73 117 113t156 40q106 0 179 -51t73 -125v-571q130 133 268 133q61 0 111 -27.5t75 -73.5q14 -28 18.5 -73.5t4.5 -159.5v-522l125 -17v-16h-383v16l125 17v522q0 141 -21 184q-36 74 -139 74 q-105 0 -184 -88v-692l125 -17v-16h-383v16l124 17v803h-335v-799l116 -21v-16h-374v16l125 17v803h-355v-799l137 -21v-16h-395v16l125 17v803h-137zM1006 1477q-99 0 -155 -103.5t-56 -288.5v-217h335v463q0 76 -30 111t-94 35zM307 1028v-160h355v428q0 60 -29.5 91.5 t-85.5 31.5q-57 0 -98.5 -17t-74.5 -59t-50 -120.5t-17 -194.5z" />
<glyph unicode="ffj" horiz-adv-x="1458" d="M37 836l10 32h127v133q0 188 103 316.5t272 128.5q133 0 192 -100q109 157 301 157q106 0 178 -51.5t72 -126.5q0 -38 -21.5 -61t-58.5 -23q-66 0 -84 90q-20 90 -41.5 118t-70.5 28q-103 0 -162 -104.5t-59 -287.5v-217h190l309 23h17v-809q0 -200 -9 -276t-38 -130 q-46 -86 -119.5 -134t-159.5 -48q-70 0 -114 33t-44 86q0 36 22 59t56 23q60 0 80 -80q11 -46 27.5 -64t48.5 -18q60 0 88.5 63t28.5 195v1020l-203 25h-180v-799l157 -21v-16h-415v16l125 17v803h-355v-799l137 -21v-16h-395v16l125 17v803h-137zM307 1028v-160h355v428 q0 60 -29.5 91.5t-85.5 31.5q-57 0 -98.5 -17t-74.5 -59t-50 -120.5t-17 -194.5z" />
<glyph unicode="ffk" horiz-adv-x="1923" d="M37 836l10 32h127v133q0 188 103 316.5t272 128.5q133 0 192 -100q108 157 295 157q114 0 180 -72.5t66 -201.5v-842l291 350q37 46 37 66q0 19 -26 28.5t-101 20.5v16h346v-16q-82 -13 -127.5 -37t-87.5 -74l-184 -217l405 -491l113 -17v-16h-262l-347 418l-57 -68v-317 l123 -17v-16h-381v16l125 17v803h-354v-799l137 -21v-16h-395v16l125 17v803h-355v-799l137 -21v-16h-395v16l125 17v803h-137zM1149 868v486q0 60 -29.5 91.5t-85.5 31.5q-57 0 -98 -17t-74.5 -59.5t-50 -121t-16.5 -194.5v-217h354zM662 868v396q0 82 -29 118.5t-86 36.5 q-53 0 -93.5 -17t-75 -58.5t-53 -121t-18.5 -194.5v-160h355z" />
<glyph unicode="fft" horiz-adv-x="1550" d="M41 838l10 30h127v133q0 188 103 316.5t272 128.5q133 0 192 -100q52 75 129.5 116t172.5 41q106 0 177.5 -51.5t71.5 -126.5q0 -38 -21 -61t-58 -23q-66 0 -84 90q-20 90 -42 118t-71 28q-103 0 -162 -104.5t-59 -287.5v-217h352l125 176l8 -2v-174h234l-13 -32h-221 v-627q0 -69 23 -107q24 -49 92 -49q61 0 131 70l8 -6q-31 -63 -87 -100t-120 -37q-68 0 -117 36q-34 25 -48.5 63.5t-14.5 102.5v656h-352v-801l157 -21v-16h-415v16l125 17v805h-355v-801l138 -21v-16h-396v16l125 17v805h-137zM311 1028v-160h355v396q0 82 -29 118.5 t-86 36.5q-53 0 -93.5 -17t-75 -58.5t-53 -121t-18.5 -194.5z" />
<glyph unicode="fh" horiz-adv-x="1409" d="M37 836l10 32h127v191q0 195 98.5 319.5t251.5 124.5q106 0 179 -51t73 -125v-571q130 133 268 133q61 0 111.5 -27.5t75.5 -73.5q14 -28 18 -73t4 -160v-522l125 -17v-16h-383v16l125 17v522q0 85 -4 122t-16 62q-36 74 -139 74q-106 0 -185 -88v-692l125 -17v-16h-383 v16l125 17v803h-336v-799l117 -21v-16h-375v16l125 17v803h-137zM518 1477q-99 0 -155 -103.5t-56 -288.5v-217h336v463q0 76 -30.5 111t-94.5 35z" />
<glyph unicode="fj" horiz-adv-x="970" d="M690 -209v1020l-203 25h-180v-799l158 -21v-16h-416v16l125 17v803h-137l10 32h127v191q0 197 106 320.5t275 123.5q106 0 178 -51.5t72 -126.5q0 -38 -21.5 -61t-58.5 -23q-66 0 -84 90q-20 90 -42 118t-71 28q-103 0 -162 -104.5t-59 -287.5v-217h191l309 23h16v-809 q0 -200 -9 -276t-38 -130q-46 -86 -119 -134t-159 -48q-70 0 -114 33t-44 86q0 36 22 59t56 23q60 0 80 -80q11 -46 27 -64t48 -18q60 0 88.5 63t28.5 195z" />
<glyph unicode="fk" horiz-adv-x="1435" d="M37 836l10 32h127v191q0 188 103 316t272 128q114 0 180 -72.5t66 -201.5v-842l290 350q37 46 37 66q0 19 -26 28.5t-101 20.5v16h346v-16q-82 -13 -127.5 -37t-87.5 -74l-184 -217l406 -491l112 -17v-16h-262l-346 418l-57 -68v-317l123 -17v-16h-381v16l125 17v803 h-355v-799l137 -21v-16h-395v16l125 17v803h-137zM662 868v486q0 60 -29.5 91.5t-85.5 31.5q-57 0 -98.5 -17t-74.5 -59.5t-50 -121t-17 -194.5v-217h355z" />
<glyph unicode="fb" horiz-adv-x="1454" d="M39 836l10 32h127v191q0 195 98.5 319.5t251.5 124.5q106 0 179 -51t73 -125v-555q108 117 252 117q154 0 248 -116.5t94 -305.5q0 -211 -116.5 -349t-294.5 -138q-129 0 -230 75h-8l-61 -55h-17v836h-336v-799l137 -21v-16h-395v16l125 17v803h-137zM958 0 q118 0 189.5 116t71.5 308q0 187 -69 295t-189 108q-55 0 -103.5 -23t-79.5 -63v-534q0 -94 49 -150.5t131 -56.5zM520 1477q-99 0 -155 -103.5t-56 -288.5v-217h336v463q0 76 -30.5 111t-94.5 35z" />
<glyph horiz-adv-x="0" />
<glyph horiz-adv-x="682" />
<glyph horiz-adv-x="0" />
<glyph horiz-adv-x="0" />
<glyph unicode="&#xd;" horiz-adv-x="491" />
<glyph unicode=" "  horiz-adv-x="491" />
<glyph unicode="&#x09;" horiz-adv-x="491" />
<glyph unicode="&#xa0;" horiz-adv-x="491" />
<glyph unicode="!" horiz-adv-x="491" d="M256 348h-20q-3 63 -9.5 201.5t-12 228.5t-13.5 166q-35 359 -35 414q0 47 21.5 73.5t58.5 26.5q80 0 80 -94q0 -24 -5 -80t-14.5 -153.5t-15.5 -178.5q-18 -221 -35 -604zM147 78q0 42 27.5 70t71.5 28t71 -28t27 -70t-27 -70t-71 -28t-71.5 28t-27.5 70z" />
<glyph unicode="&#x22;" horiz-adv-x="528" d="M162 1044q0 95 -11 169t-22.5 119t-11.5 69q0 61 55 61t55 -61q0 -25 -11 -70t-22.5 -119t-11.5 -168h-20zM346 1044q0 95 -11 169t-22.5 119t-11.5 69q0 61 55 61q56 0 56 -61q0 -25 -11 -70t-22.5 -119t-11.5 -168h-21z" />
<glyph unicode="#" horiz-adv-x="1230" d="M100 471l11 45h260l53 348h-250l10 45h248l45 285h47l-45 -285h346l45 285h48l-46 -285h258l-10 -45h-256l-53 -348h248l-12 -45h-244l-43 -283h-47l43 283h-346l-43 -283h-48l43 283h-262zM471 864l-53 -348h346l53 348h-346z" />
<glyph unicode="$" horiz-adv-x="1056" d="M506 1638h45v-192q149 -3 264 -66t115 -141q0 -32 -21 -54t-53 -22q-58 0 -84 80q-16 41 -30 67t-38.5 53.5t-62.5 41.5t-90 16v-612l53 -25q53 -25 82.5 -40t74 -40t70 -45.5t55.5 -51t45.5 -61.5t26.5 -72t11 -87q0 -170 -121 -285.5t-297 -130.5v-178h-45v174 q-105 0 -197.5 34.5t-146 90.5t-53.5 117q0 37 19.5 59.5t53.5 22.5t52 -21.5t32 -58.5q5 -12 15 -39.5t15 -38.5l15 -33t17.5 -31.5t20.5 -25t27.5 -22t33.5 -15t43 -11.5t53 -3v635l-41 18q-50 23 -76 35.5t-71.5 38t-70.5 45.5t-57 52t-49 64.5t-29 76.5t-12 94 q0 166 113 274t293 119v194zM842 285q0 60 -19.5 106.5t-62 84.5t-89 65.5t-120.5 62.5v-610q130 11 210.5 89t80.5 202zM233 1147q0 -59 17 -104t55.5 -82.5t83.5 -65.5t117 -64v588q-127 -6 -200 -78t-73 -194z" />
<glyph unicode="%" horiz-adv-x="1185" d="M932 1413h51l-731 -1417h-51zM858 643q103 0 174.5 -97t71.5 -235t-71.5 -234.5t-174.5 -96.5t-174.5 96.5t-71.5 234.5t71.5 235t174.5 97zM741 311q0 -311 117 -311t117 311q0 312 -117 312t-117 -312zM328 1434q103 0 174 -97t71 -235t-71 -235t-174 -97t-174.5 97 t-71.5 235t71.5 235t174.5 97zM211 1102q0 -311 117 -311q116 0 116 311t-116 311q-117 0 -117 -311z" />
<glyph unicode="&#x26;" horiz-adv-x="1695" d="M1284 678q-103 -233 -215 -383l45 -49q84 -95 137.5 -129.5t120.5 -34.5q60 0 108 24t103 84l21 23l8 -4l-8 -23q-38 -105 -122 -166t-190 -61q-79 0 -146 39t-147 131l-36 43q-213 -213 -469 -213q-190 0 -295 89.5t-105 252.5q0 151 94.5 264.5t278.5 179.5 q-106 123 -146 200.5t-40 156.5q0 151 106 247.5t270 96.5q141 0 229.5 -72.5t88.5 -189.5q0 -121 -94 -228.5t-248 -164.5l418 -474q123 153 200 361q9 24 9 35q0 23 -13.5 33.5t-48.5 13.5l-166 10v16h518v-16l-155 -10q-52 -3 -71.5 -17.5t-39.5 -64.5zM279 352 q0 -145 78.5 -232t209.5 -87q184 0 371 166l-457 530q-96 -60 -149 -159t-53 -218zM838 1157q0 121 -56 192.5t-151 71.5q-91 0 -149 -64.5t-58 -166.5q0 -85 47.5 -176.5t151.5 -210.5q215 119 215 354z" />
<glyph unicode="'" horiz-adv-x="344" d="M162 1044q0 95 -11 169t-22.5 119t-11.5 69q0 61 55 61t55 -61q0 -25 -11 -70t-22.5 -119t-11.5 -168h-20z" />
<glyph unicode="(" horiz-adv-x="546" d="M244 575q0 -303 69.5 -558t180.5 -375l-9 -7q-68 56 -136.5 152t-127.5 218t-96 273.5t-37 299.5t37 299.5t96 273t127.5 217.5t136.5 152l9 -7q-111 -120 -180.5 -377.5t-69.5 -560.5z" />
<glyph unicode=")" horiz-adv-x="546" d="M303 575q0 303 -69.5 560.5t-180.5 377.5l8 7q68 -56 136.5 -152t128 -217.5t96.5 -273t37 -299.5t-37 -299.5t-96.5 -273.5t-128 -218t-136.5 -152l-8 7q111 120 180.5 375t69.5 558z" />
<glyph unicode="*" horiz-adv-x="835" d="M473 1403q0 -16 -22 -88.5t-23 -157.5q60 41 106.5 88t69 68.5t45.5 21.5q21 0 37 -12.5t16 -38.5q0 -27 -24.5 -39t-96.5 -37.5t-143 -66.5q57 -32 114 -55t85.5 -31t46.5 -21.5t18 -34.5q0 -25 -15.5 -38t-37.5 -13q-23 0 -45.5 21.5t-68.5 68t-107 86.5q1 -84 23 -156 t22 -87q0 -28 -15 -44t-40 -16t-40.5 15.5t-15.5 44.5q0 18 11 48.5t22.5 80.5t12.5 114q-60 -40 -107 -86.5t-70 -68t-47 -21.5q-21 0 -36 12.5t-15 36.5q0 22 18 35.5t46 22t85.5 31.5t114.5 55q-57 33 -114 56t-85.5 31.5t-46.5 21.5t-18 34q0 25 15.5 38t37.5 13 q23 0 45.5 -21.5t69.5 -68.5t107 -88q-1 65 -12.5 115.5t-22.5 81t-11 49.5q0 59 56 59q55 0 55 -59z" />
<glyph unicode="+" horiz-adv-x="929" d="M117 682v45h325v326h45v-326h326v-45h-326v-326h-45v326h-325z" />
<glyph unicode="," horiz-adv-x="479" d="M158 -330l-8 11q45 43 73.5 102.5t28.5 110.5q0 39 -19 67t-41.5 41.5t-41.5 38t-19 57.5q0 46 27.5 75.5t68.5 29.5q56 0 89.5 -42t33.5 -120q0 -220 -192 -371z" />
<glyph unicode="-" horiz-adv-x="729" d="M133 442l14 45h451l-14 -45h-451z" />
<glyph unicode="." horiz-adv-x="473" d="M131 98q0 45 30 75t77 30q46 0 75 -30t29 -75t-29 -75.5t-75 -30.5q-47 0 -77 30.5t-30 75.5z" />
<glyph unicode="/" horiz-adv-x="665" d="M524 1413h47l-430 -1413h-47z" />
<glyph unicode="0" horiz-adv-x="1093" d="M985 434q0 -196 -124.5 -325t-313.5 -129t-313.5 129t-124.5 325t124.5 325.5t313.5 129.5t313.5 -129.5t124.5 -325.5zM547 805q-164 0 -257 -99t-93 -274q0 -168 93.5 -267t256.5 -99t256.5 98t93.5 266q0 177 -93 276t-257 99z" />
<glyph unicode="1" horiz-adv-x="694" d="M416 885l35 -13v-825l194 -33v-14h-536v14l208 33v647h-202v15q80 14 147.5 55.5t153.5 120.5z" />
<glyph unicode="2" horiz-adv-x="948" d="M707 0h-601l-6 20q240 205 342.5 339.5t102.5 248.5q0 78 -43 126t-113 48q-73 0 -143 -54.5t-113 -145.5l-14 6q39 134 138 217.5t214 83.5q98 0 171 -72t73 -172q0 -97 -86 -197t-330 -284l4 -6h420q74 90 125 190l16 -6l-121 -375h-14z" />
<glyph unicode="3" horiz-adv-x="866" d="M250 201l-4 16q154 63 237.5 162t83.5 219q0 86 -41.5 135t-113.5 49q-75 0 -144.5 -52t-103.5 -134l-14 6q35 126 130 206.5t209 80.5q103 0 174.5 -66t71.5 -161q0 -168 -272 -338v-9q144 -26 226.5 -113t82.5 -212q0 -114 -65.5 -211.5t-177.5 -155t-242 -57.5 q-97 0 -158 30.5t-61 77.5q0 24 15 39t40 15q26 0 49.5 -21t41 -46t53 -46t83.5 -21q104 0 173 89.5t69 224.5t-69 218t-179 83q-24 0 -94 -8z" />
<glyph unicode="4" horiz-adv-x="942" d="M537 -371v371h-500l-8 12l647 862l14 -10v-758h174v-106h-174v-371h-153zM537 106v527h-9l-387 -518l2 -9h394z" />
<glyph unicode="5" horiz-adv-x="811" d="M281 733l-45 -268q232 -54 359.5 -179.5t127.5 -301.5q0 -180 -125.5 -298t-318.5 -118q-94 0 -156 30.5t-62 77.5q0 24 16 40t40 16q21 0 39.5 -14t34 -34.5t33 -41t44.5 -34.5t60 -14q97 0 158 86.5t61 221.5q0 324 -375 403l98 563h375l37 66l10 -6l-61 -195h-350z " />
<glyph unicode="6" horiz-adv-x="993" d="M504 -33q-180 0 -283.5 130.5t-103.5 355.5q0 298 184.5 534t503.5 346l8 -10q-221 -114 -338.5 -273t-152.5 -391l8 -4q75 97 217 97q154 0 252 -106.5t98 -272.5q0 -177 -110.5 -291.5t-282.5 -114.5zM508 -6q91 0 144 95.5t53 256.5q0 168 -57.5 268.5t-153.5 100.5 q-49 0 -93.5 -26t-74.5 -71q-21 -105 -21 -188q0 -207 53 -321.5t150 -114.5z" />
<glyph unicode="7" horiz-adv-x="862" d="M207 868h641l8 -6q-179 -331 -244 -488.5t-241 -678.5q-37 -103 -103 -103q-35 0 -55 24t-20 65q0 80 71 202l498 846h-594l-107 -156l-10 9l148 338l8 -5v-47z" />
<glyph unicode="8" horiz-adv-x="980" d="M584 745q137 -85 203.5 -180.5t66.5 -208.5q0 -167 -106 -278t-265 -111q-154 0 -257 99t-103 245q0 109 69.5 193t217.5 155q-129 80 -190.5 163.5t-61.5 181.5q0 145 96.5 238t245.5 93q143 0 235 -82t92 -209q0 -96 -59 -169t-184 -130zM563 756q51 54 80 136.5 t29 178.5q0 240 -170 240q-88 0 -138.5 -55t-50.5 -150q0 -103 58 -184t192 -166zM428 645q-127 -103 -127 -321q0 -155 55.5 -243.5t153.5 -88.5q88 0 140 69.5t52 186.5q0 125 -63 216.5t-211 180.5z" />
<glyph unicode="9" horiz-adv-x="946" d="M469 889q180 0 283.5 -125t103.5 -340q0 -291 -184.5 -522t-503.5 -338l-8 10q221 110 338.5 264t152.5 379l-8 4q-77 -96 -217 -96q-154 0 -252 106.5t-98 272.5q0 167 110.5 276t282.5 109zM465 862q-91 0 -144 -90t-53 -242q0 -168 57 -268t154 -100q49 0 94 25.5 t74 70.5q21 105 21 188q0 198 -53 307t-150 109z" />
<glyph unicode=":" horiz-adv-x="477" d="M133 98q0 45 30 75t77 30q46 0 75 -30t29 -75t-29 -75.5t-75 -30.5q-47 0 -77 30.5t-30 75.5zM133 733q0 45 30 75t77 30q46 0 75 -30t29 -75t-29 -75.5t-75 -30.5q-47 0 -77 30.5t-30 75.5z" />
<glyph unicode=";" horiz-adv-x="503" d="M137 733q0 45 30 75t77 30q46 0 75 -30t29 -75t-29 -75.5t-75 -30.5q-47 0 -77 30.5t-30 75.5zM172 -330l-8 11q45 43 73.5 102.5t28.5 110.5q0 39 -19 67t-41.5 41.5t-41.5 38t-19 57.5q0 45 28 75t69 30q56 0 89.5 -42t33.5 -120q0 -220 -193 -371z" />
<glyph unicode="&#x3c;" horiz-adv-x="866" d="M106 674v67l558 291l18 -33l-547 -290l549 -287l-18 -41z" />
<glyph unicode="=" horiz-adv-x="985" d="M150 467l14 45h676l-15 -45h-675zM150 846l14 45h676l-15 -45h-675z" />
<glyph unicode="&#x3e;" horiz-adv-x="866" d="M760 741v-67l-559 -293l-19 41l549 287l-547 290l19 33z" />
<glyph unicode="?" horiz-adv-x="743" d="M240 348h-21l-16 475h55q188 0 274 40.5t86 129.5q0 56 -34.5 100.5t-86.5 71.5t-113 53.5t-113 47.5t-86.5 52t-34.5 68t21.5 54.5t68.5 17.5q97 0 192.5 -71t155 -184t59.5 -228q0 -141 -90 -224t-248 -89l-53 -3zM123 78q0 43 27.5 70.5t70.5 27.5t70.5 -27.5 t27.5 -70.5t-27.5 -70.5t-70.5 -27.5t-70.5 27.5t-27.5 70.5z" />
<glyph unicode="@" horiz-adv-x="1540" d="M1118 -233l10 -27q-160 -94 -370 -94q-303 0 -486.5 165.5t-183.5 438.5q0 155 60.5 294t163 238.5t246 158t302.5 58.5q252 0 415 -147t163 -375q0 -97 -32 -187.5t-85 -156.5t-126 -105.5t-151 -39.5t-121.5 38t-43.5 107q0 26 8 37l-6 2q-113 -162 -258 -162 q-92 0 -145.5 56t-53.5 153q0 85 41 177t104.5 164t144.5 118.5t156 46.5q93 0 129 -82h9l24 82h156l-160 -541q-12 -35 -12 -67q0 -46 16.5 -65t54.5 -19q81 0 155.5 62t119.5 164.5t45 215.5q0 216 -154.5 355t-394.5 139q-178 0 -325 -92.5t-230.5 -254t-83.5 -358.5 q0 -268 157 -427t423 -159q92 0 164 20.5t155 68.5zM666 39q72 0 144.5 78.5t118.5 201.5t46 244q0 72 -19.5 104.5t-62.5 32.5q-72 0 -147 -77t-124 -196t-49 -234q0 -75 24 -114.5t69 -39.5z" />
<glyph unicode="A" horiz-adv-x="1347" d="M240 27l125 -11v-16h-437v16l115 11q51 4 72.5 20t38.5 62l501 1337h37l516 -1409l170 -21v-16h-501v16l167 21l-192 524h-496l-170 -452q-8 -21 -8 -37q0 -23 13.5 -32.5t48.5 -12.5zM610 1219h-8l-233 -625h471z" />
<glyph unicode="B" horiz-adv-x="1259" d="M250 1380l-168 17v16h510q241 0 368 -86.5t127 -249.5q0 -130 -79.5 -215.5t-225.5 -107.5v-9q179 -25 273 -116.5t94 -241.5q0 -77 -25.5 -144t-78.5 -123t-145 -88t-214 -32h-604v16l168 17v1347zM408 25h229q317 0 317 356q0 185 -80 269.5t-237 84.5h-229v-710z M408 760h237q137 0 197.5 79.5t60.5 237.5q0 312 -317 312h-178v-629z" />
<glyph unicode="C" horiz-adv-x="1384" d="M1077 139q99 111 152 336l26 -4v-471h-26l-70 113q-93 -67 -200.5 -106.5t-206.5 -39.5q-178 0 -326.5 97.5t-234 267.5t-85.5 375q0 204 85.5 374t233 267.5t323.5 97.5t405 -123l49 98h27l20 -460l-28 -9q-27 154 -91 260q-61 101 -159 155t-217 54q-218 0 -334.5 -186 t-116.5 -528q0 -340 117 -525.5t332 -185.5q92 0 178.5 39t146.5 104z" />
<glyph unicode="D" horiz-adv-x="1441" d="M82 1397v16h545q281 0 436 -108q126 -88 195 -242t69 -348q0 -195 -69.5 -354t-194.5 -250q-79 -58 -182.5 -84.5t-253.5 -26.5h-545v16l168 17v1347zM408 25h200q163 0 245 26t136 94q66 85 103.5 239t37.5 341q0 376 -141 543q-58 67 -142 94t-239 27h-200v-1364z" />
<glyph unicode="E" horiz-adv-x="1257" d="M408 760h303q49 0 69 16.5t29 63.5l35 166h24v-525h-24l-35 166q-9 47 -29 63.5t-69 16.5h-303v-702h458q50 0 72 14.5t41 60.5l135 332l23 -2l-52 -430h-1003v16l168 17v1347l-168 17v16h1005l29 -385l-20 -2l-115 287q-19 46 -40.5 61t-70.5 15h-462v-629z" />
<glyph unicode="F" horiz-adv-x="1134" d="M408 760h297q49 0 69 16.5t29 63.5l35 166h24v-525h-24l-35 166q-9 47 -29 63.5t-69 16.5h-297v-694l200 -17v-16h-526v16l168 17v1347l-168 17v16h958l33 -407l-16 -2l-123 309q-19 46 -40.5 61t-70.5 15h-415v-629z" />
<glyph unicode="G" horiz-adv-x="1439" d="M1081 674l-147 16v17h473v-17l-168 -16v-535q-68 -63 -169.5 -104.5t-178.5 -54.5t-139 -13q-178 0 -326.5 97.5t-234 267.5t-85.5 375q0 204 85.5 374t233 267.5t323.5 97.5q174 0 397 -123l49 98h27l20 -460l-29 -9q-28 157 -90 260q-61 101 -156.5 155t-211.5 54 q-218 0 -334.5 -186t-116.5 -528q0 -343 117 -529t332 -186q102 0 190 46t139 120v516z" />
<glyph unicode="H" horiz-adv-x="1497" d="M250 1380l-168 17v16h504v-16l-178 -17v-620h682v620l-179 17v16h504v-16l-168 -17v-1347l168 -17v-16h-504v16l179 17v694h-682v-694l178 -17v-16h-504v16l168 17v1347z" />
<glyph unicode="I" horiz-adv-x="657" d="M250 1380l-168 17v16h493v-16l-167 -17v-1347l167 -17v-16h-493v16l168 17v1347z" />
<glyph unicode="J" horiz-adv-x="675" d="M274 -41v1421l-168 17v16h494v-16l-168 -17v-1263q0 -133 -15 -209.5t-52 -130.5q-41 -59 -108.5 -93t-143.5 -34q-95 0 -159.5 45t-64.5 112q0 41 23 66t63 25t63 -25t23 -68q0 -7 -1 -29.5t-1 -29.5q0 -72 70 -72q66 0 105.5 78t39.5 207z" />
<glyph unicode="K" horiz-adv-x="1343" d="M250 1380l-168 17v16h504v-16l-178 -17v-741l557 643q32 40 32 64q0 20 -31.5 30.5t-127.5 20.5v16h417v-16q-119 -20 -161 -39t-88 -72l-377 -430l594 -774q34 -39 64.5 -52.5t86.5 -13.5h8v-16h-305l-557 731l-112 -129v-569l178 -17v-16h-504v16l168 17v1347z" />
<glyph unicode="L" horiz-adv-x="1193" d="M250 1380l-168 17v16h504v-16l-178 -17v-1355h452q50 0 72 14.5t41 60.5l139 351l25 -5l-52 -446h-1003v16l168 17v1347z" />
<glyph unicode="M" horiz-adv-x="1783" d="M1382 1413h330v-16l-178 -17v-1347l178 -17v-16h-504v16l168 17v1247h-8l-494 -1313h-20l-551 1315h-8v-1157q0 -50 12.5 -69t48.5 -23l146 -17v-16h-449v16l148 17q36 4 48.5 23t12.5 69v1229q-17 25 -38.5 34t-59.5 9h-94v16h350l504 -1202h8z" />
<glyph unicode="N" d="M123 1397h-35v16h305l807 -1130h8v1005q0 50 -12.5 69.5t-48.5 22.5l-166 17v16h489v-16l-147 -17q-49 -6 -65.5 -24t-16.5 -68v-1321h-20l-920 1305h-8v-1147q0 -50 12.5 -69t48.5 -23l146 -17v-16h-449v16l148 17q36 4 48.5 23t12.5 69v1192q-33 49 -60 64.5t-77 15.5z " />
<glyph unicode="O" d="M752 1446q178 0 326.5 -97.5t233.5 -267t85 -374.5q0 -153 -50 -290.5t-136 -236t-205.5 -156t-253.5 -57.5q-178 0 -326.5 97.5t-234 267.5t-85.5 375t85.5 374.5t234 267t326.5 97.5zM303 707q0 -341 117 -527t332 -186t331.5 185.5t116.5 527.5q0 343 -116.5 528.5 t-331.5 185.5t-332 -185.5t-117 -528.5z" />
<glyph unicode="P" horiz-adv-x="1163" d="M82 16l168 17v1347l-168 17v16h518q240 0 368 -102t128 -289q0 -199 -127 -303.5t-369 -104.5h-192v-581l200 -17v-16h-526v16zM408 639h186q165 0 241 94.5t76 298.5q0 81 -14 141.5t-47.5 111.5t-97.5 77.5t-158 26.5h-186v-750z" />
<glyph unicode="Q" d="M752 1446q178 0 326.5 -97.5t233.5 -267t85 -374.5q0 -186 -71.5 -345t-196.5 -260.5t-281 -126.5q47 -18 130.5 -61t150.5 -68.5t126 -25.5q65 0 101 31t61 88l21 -13q-43 -99 -130.5 -165t-187.5 -66q-142 0 -241 131q-108 141 -209 141q-45 0 -86 -22.5t-41 -57.5 q0 -14 13 -50t13 -58q0 -36 -25 -61t-61 -25q-35 0 -57.5 25t-22.5 65q0 64 57.5 115t151.5 86q-221 53 -363.5 254t-142.5 469q0 205 85.5 374.5t234 267t326.5 97.5zM303 707q0 -343 117 -529t332 -186t331.5 186t116.5 529t-116.5 528.5t-331.5 185.5t-332 -185.5 t-117 -528.5z" />
<glyph unicode="R" horiz-adv-x="1257" d="M82 16l168 17v1347l-168 17v16h518q241 0 368.5 -97t127.5 -282q0 -142 -77 -234.5t-224 -127.5l374 -586q26 -41 52 -55.5t75 -14.5h29v-16h-211q-49 0 -73.5 14t-51.5 56l-313 505q-30 47 -48.5 58.5t-68.5 11.5h-151v-612l178 -17v-16h-504v16zM408 676h186 q164 0 242.5 87t78.5 267q0 182 -79 270.5t-242 88.5h-186v-713z" />
<glyph unicode="S" horiz-adv-x="1128" d="M565 -33q-96 0 -186 29.5t-154 83.5l-43 -113h-26l-27 490l18 4q31 -139 63 -217t83 -135q105 -117 276 -117q148 0 231 76t83 208q0 41 -9.5 77t-24.5 64t-43 55t-54.5 47t-71 43.5t-80.5 40.5t-94 42q-65 28 -108.5 50.5t-96.5 59.5t-84.5 76.5t-53.5 97.5t-22 126 q0 170 118.5 280.5t301.5 110.5q83 0 155.5 -28.5t157.5 -94.5l50 98h26l21 -446l-21 -6q-36 143 -84 241q-101 211 -313 211q-128 0 -203.5 -73t-75.5 -197q0 -39 9 -73.5t23.5 -62t41 -54t53 -47t69.5 -44.5t80.5 -42t94.5 -44q72 -33 117.5 -56.5t97.5 -60.5t81 -75 t49 -92.5t20 -120.5q0 -180 -125.5 -296t-319.5 -116z" />
<glyph unicode="T" horiz-adv-x="1361" d="M592 1391h-270q-49 0 -71.5 -16t-43.5 -62l-141 -316l-17 4l80 445h12q45 -20 76.5 -26.5t81.5 -6.5h788q50 0 81.5 6.5t76.5 26.5h12l46 -445l-17 -4l-127 316q-19 47 -40.5 62.5t-69.5 15.5h-299v-1358l221 -17v-16h-600v16l221 17v1358z" />
<glyph unicode="U" horiz-adv-x="1361" d="M1098 492v796q0 49 -12.5 67.5t-49.5 24.5l-145 17v16h448v-16l-147 -17q-37 -6 -49.5 -24.5t-12.5 -67.5v-786q0 -245 -79 -363q-56 -80 -152.5 -126t-212.5 -46q-95 0 -187 31t-153 84q-63 56 -90 142t-27 237v919l-168 17v16h504v-16l-178 -17v-987q0 -149 28 -229.5 t93 -118.5q73 -45 192 -45q103 0 188 41.5t138 116.5q39 58 55.5 134.5t16.5 199.5z" />
<glyph unicode="V" horiz-adv-x="1347" d="M1108 1386l-125 11v16h436v-16l-114 -11q-52 -4 -73 -19.5t-38 -61.5l-502 -1338h-37l-518 1413l-168 17v16h512v-16l-178 -17l434 -1185h8l416 1110q8 20 8 38q0 20 -13.5 30t-47.5 13z" />
<glyph unicode="W" horiz-adv-x="1935" d="M1677 1386l-125 11v16h437v-16l-115 -11q-55 -4 -76 -19.5t-35 -61.5l-407 -1338h-33l-360 1018l-310 -1018h-32l-498 1413l-168 17v16h512v-16l-178 -17l403 -1151h8l246 807l-121 344l-168 17v16h512v-16l-178 -17l404 -1151h8l328 1076q6 21 6 38q0 22 -12.5 31 t-47.5 12z" />
<glyph unicode="X" horiz-adv-x="1464" d="M1141 1386l-117 11v16h418v-16l-105 -8q-49 -4 -75.5 -19t-55.5 -55l-411 -557l499 -725l168 -17v-16h-522v16l178 17l-432 626l-416 -561q-24 -35 -24 -47q0 -18 57 -24l117 -11v-16h-418v16l104 9q50 5 76.5 19.5t55.5 53.5l432 584l-480 698l-167 17v16h522v-16 l-178 -17l411 -600l396 535q24 35 24 47q0 18 -57 24z" />
<glyph unicode="Y" horiz-adv-x="1253" d="M987 1386l-125 11v16h436v-16l-114 -11q-50 -4 -69 -19t-42 -62l-356 -746v-526l178 -17v-16h-514v16l178 17v518l-444 829l-168 17v16h510v-16l-178 -17l415 -776h11l335 701q9 20 9 38q0 20 -14 30t-48 13z" />
<glyph unicode="Z" horiz-adv-x="1202" d="M909 1380v9h-493q-49 0 -73 -15t-46 -59l-156 -309l-28 4l84 403h897v-16l-838 -1364v-8h561q50 0 72.5 14.5t42.5 60.5l147 344l29 -4l-76 -440h-960v16z" />
<glyph unicode="[" horiz-adv-x="626" d="M575 -342h-387v1845h387v-33h-251v-1779h251v-33z" />
<glyph unicode="\" horiz-adv-x="665" d="M94 1413h47l430 -1413h-47z" />
<glyph unicode="]" horiz-adv-x="626" d="M438 -342h-387v33h252v1779h-252v33h387v-1845z" />
<glyph unicode="^" horiz-adv-x="745" d="M436 768l174 -381l-6 -2l-231 299l-232 -299l-6 2l174 381q18 43 64 43q42 0 63 -43z" />
<glyph unicode="_" horiz-adv-x="811" d="M106 -76l15 45h573l-14 -45h-574z" />
<glyph unicode="`" horiz-adv-x="397" d="M213 1372l92 -299l-6 -2l-133 168q-12 15 -27.5 34.5t-22 27.5t-13.5 18.5t-9 17.5t-2 15q0 27 15.5 45t42.5 18q49 0 63 -43z" />
<glyph unicode="a" horiz-adv-x="800" d="M266 -14q-78 0 -128 54t-50 140q0 103 93 165t317 106v186q0 118 -26.5 164.5t-92.5 46.5q-63 0 -102 -34t-39 -91q0 -7 1 -26t1 -29q0 -52 -20 -81.5t-54 -29.5q-31 0 -50.5 21t-19.5 53q0 50 48.5 107.5t123.5 97.5q91 51 191 51q116 0 155 -86q11 -28 14 -67t3 -148 v-391q0 -73 14 -101t51 -28q58 0 82 38l8 -4q-25 -51 -65 -78.5t-88 -27.5q-54 0 -89 32t-38 85l-6 2q-46 -59 -108.5 -93t-125.5 -34zM354 63q42 0 81 20t63 56v289q-158 -38 -215.5 -82t-57.5 -127q0 -72 34.5 -114t94.5 -42z" />
<glyph unicode="b" horiz-adv-x="956" d="M463 -20q-129 0 -230 75h-8l-61 -55h-17v1337l-120 45v15l237 80h17v-705q108 117 251 117q154 0 248 -116.5t94 -305.5q0 -211 -116.5 -349t-294.5 -138zM461 0q118 0 189 116t71 308q0 187 -69 295t-189 108q-115 0 -182 -86v-534q0 -94 49 -150.5t131 -56.5z" />
<glyph unicode="c" horiz-adv-x="831" d="M487 889q114 0 193.5 -51.5t79.5 -126.5q0 -35 -20.5 -56.5t-55.5 -21.5q-36 0 -54.5 24t-25.5 58.5t-15.5 69.5t-35 59t-74.5 24q-113 0 -186.5 -116.5t-73.5 -296.5q0 -178 76.5 -276.5t214.5 -98.5q148 0 248 129l18 24l8 -4l-8 -22q-40 -108 -123.5 -167.5 t-195.5 -59.5q-164 0 -269.5 124.5t-105.5 319.5q0 203 113.5 334t291.5 131z" />
<glyph unicode="d" horiz-adv-x="966" d="M422 -20q-146 0 -243 124.5t-97 313.5q0 209 120.5 340t313.5 131q77 0 160 -25v473l-121 45v15l238 80h16v-1350l113 -25v-10l-224 -102h-12v139l-6 2q-97 -151 -258 -151zM494 61q59 0 107.5 25.5t74.5 71.5v524q0 90 -42 138t-120 48q-130 0 -208.5 -116t-78.5 -306 q0 -179 71 -282t196 -103z" />
<glyph unicode="e" horiz-adv-x="866" d="M793 557l-13 -10h-553q-4 -27 -4 -84q0 -187 75.5 -284t211.5 -97q148 0 248 127l18 24l8 -4l-8 -22q-40 -109 -121.5 -168t-193.5 -59q-169 0 -274 125.5t-105 326.5q0 203 114 330t298 127q143 0 219.5 -85t79.5 -247zM471 866q-95 0 -159 -80.5t-83 -216.5l398 15 q6 24 6 82q0 110 -42.5 155t-119.5 45z" />
<glyph unicode="f" horiz-adv-x="538" d="M37 836l10 32h127v119q0 147 5 207t20 100q35 91 121 149t186 58q80 0 139.5 -36t59.5 -85q0 -30 -22.5 -51.5t-53.5 -21.5q-65 0 -80 84q-12 50 -28 67t-50 17q-91 0 -135 -107q-17 -42 -23 -98t-6 -170v-232h191l-11 -32h-180v-799l178 -21v-16h-436v16l125 17v803 h-137z" />
<glyph unicode="g" horiz-adv-x="825" d="M379 -504q-169 0 -262.5 60.5t-93.5 169.5q0 76 60 139.5t163 97.5q-73 28 -104 65t-31 85q0 58 68.5 104.5t197.5 75.5q-127 12 -206 94.5t-79 204.5q0 130 91.5 213.5t234.5 83.5q113 0 196 -58q50 179 160 179q38 0 61 -21.5t23 -56.5q0 -29 -20.5 -49.5t-49.5 -20.5 q-21 0 -50 20.5t-46 20.5q-41 0 -59 -84q110 -83 110 -229q0 -125 -84 -208.5t-217 -90.5q-102 -17 -158.5 -50t-56.5 -73q0 -29 17 -47.5t69.5 -36.5t155.5 -37q174 -32 248 -92t74 -168q0 -125 -117.5 -208t-294.5 -83zM408 -82q-75 16 -144 37q-143 -52 -143 -211 q0 -109 70.5 -168t199.5 -59t205 57t76 152q0 78 -55.5 120t-208.5 72zM418 311q77 0 125.5 78t48.5 201t-48.5 200.5t-125.5 77.5t-125.5 -77.5t-48.5 -200.5t48.5 -201t125.5 -78z" />
<glyph unicode="h" horiz-adv-x="927" d="M295 33l125 -17v-16h-383v16l125 17v1304l-121 45v15l238 80h16v-721q130 133 268 133q61 0 111.5 -27.5t75.5 -73.5q14 -28 18 -73t4 -160v-522l125 -17v-16h-383v16l125 17v522q0 141 -21 184q-36 74 -139 74q-105 0 -184 -88v-692z" />
<glyph unicode="i" horiz-adv-x="468" d="M133 1184q0 42 27 70t71 28t71.5 -28t27.5 -70t-27.5 -70.5t-71.5 -28.5q-43 0 -70.5 28.5t-27.5 70.5zM309 33l125 -17v-16h-383v16l125 17v717l-121 45v14l238 80h16v-856z" />
<glyph unicode="j" horiz-adv-x="446" d="M123 1184q0 43 27.5 70.5t70.5 27.5t70.5 -27.5t27.5 -70.5t-27.5 -71t-70.5 -28t-70.5 28t-27.5 71zM166 -209v959l-121 45v14l238 80h16v-807q0 -200 -9 -276t-38 -130q-46 -86 -119.5 -134t-159.5 -48q-70 0 -113.5 33t-43.5 86q0 36 22 59t56 23q59 0 79 -80 q11 -46 27.5 -64t48.5 -18q60 0 88.5 63t28.5 195z" />
<glyph unicode="k" horiz-adv-x="935" d="M295 33l123 -17v-16h-381v16l125 17v1304l-121 45v15l238 80h16v-1090l291 350q37 46 37 66q0 19 -26 28.5t-101 20.5v16h346v-16q-82 -13 -127.5 -37t-87.5 -74l-185 -217l406 -491l113 -17v-16h-263l-346 418l-57 -68v-317z" />
<glyph unicode="l" horiz-adv-x="456" d="M295 33l125 -17v-16h-383v16l125 17v1304l-121 45v15l238 80h16v-1444z" />
<glyph unicode="m" horiz-adv-x="1335" d="M309 33l125 -17v-16h-381v16l123 17v717l-121 45v14l232 80h16v-137q122 137 252 137q117 0 168 -101q9 -19 12 -40q126 141 256 141q117 0 168 -101q13 -28 18 -76t5 -157v-522l127 -17v-16h-385v16l125 17v522q0 137 -19 184q-30 74 -123 74q-96 0 -168 -90 q6 -53 6 -168v-522l127 -17v-16h-387v16l127 17v522q0 139 -18 184q-30 74 -123 74t-162 -84v-696z" />
<glyph unicode="n" horiz-adv-x="946" d="M309 33l125 -17v-16h-383v16l125 17v706l-121 45v15l232 80h16v-129q133 139 275 139q63 0 115 -27.5t75 -73.5q14 -28 18.5 -73.5t4.5 -159.5v-522l122 -17v-16h-381v16l125 17v522q0 140 -20 184q-17 35 -54 54.5t-87 19.5q-105 0 -187 -88v-692z" />
<glyph unicode="o" horiz-adv-x="974" d="M487 889q180 0 293 -126.5t113 -328.5t-113 -328t-293 -126t-292.5 126t-112.5 328t112.5 328.5t292.5 126.5zM233 434q0 -204 67 -319t187 -115q119 0 186.5 115t67.5 319t-67.5 319t-186.5 115q-120 0 -187 -115t-67 -319z" />
<glyph unicode="p" horiz-adv-x="966" d="M295 16v-458l184 -23v-14h-442v16l125 17v1196l-121 45v14l231 80h17v-146h8q44 68 115.5 107t150.5 39q138 0 229 -121.5t91 -308.5q0 -211 -117.5 -345t-302.5 -134q-89 0 -168 36zM477 0q111 0 183.5 121.5t72.5 308.5q0 181 -67.5 289t-180.5 108q-63 0 -114 -32.5 t-76 -89.5v-560q0 -59 54.5 -102t127.5 -43z" />
<glyph unicode="q" horiz-adv-x="956" d="M492 -465l184 23v542q-102 -120 -252 -120q-151 0 -246.5 119t-95.5 307q0 207 119 345t297 138q121 0 225 -76h8l55 55h23v-1314l125 -17v-16h-442v14zM504 868q-123 0 -197 -116.5t-74 -309.5q0 -186 69.5 -293.5t189.5 -107.5q54 0 103 23t81 63v535q0 98 -45 152 t-127 54z" />
<glyph unicode="r" horiz-adv-x="645" d="M309 33l164 -17v-16h-422v16l125 17v717l-121 45v14l232 80h16v-180q112 180 215 180q41 0 69.5 -27.5t28.5 -66.5q0 -33 -22 -55.5t-55 -22.5q-25 0 -43 17.5t-34.5 34.5t-37.5 17q-32 0 -67 -38.5t-48 -90.5v-624z" />
<glyph unicode="s" horiz-adv-x="704" d="M399 889q107 0 185 -29v-227h-23q-28 123 -72.5 178t-117.5 55q-68 0 -109 -41.5t-41 -111.5q0 -50 22 -86.5t57 -59.5t77.5 -42.5t84.5 -41.5t77 -49.5t57 -74.5t22 -109q0 -124 -79.5 -197t-214.5 -73q-112 0 -215 36l-11 267h25q22 -143 73 -212t136 -69 q75 0 120.5 48t45.5 126q0 52 -22 91t-57.5 63.5t-78 45t-85 43t-78 50t-57.5 73t-22 105.5q0 116 78.5 179t222.5 63z" />
<glyph unicode="t" horiz-adv-x="548" d="M274 1065l9 -2v-195h233l-12 -32h-221v-627q0 -71 22 -107q24 -49 92 -49q61 0 131 70l9 -6q-31 -63 -87 -100t-120 -37q-68 0 -117 36q-34 25 -48.5 63.5t-14.5 102.5v656h-97l-4 10z" />
<glyph unicode="u" horiz-adv-x="907" d="M616 836l-122 16v16h256v-741l112 -25v-10l-223 -102h-12v139l-6 2q-121 -151 -261 -151q-63 0 -112 27t-72 73q-14 28 -18 73t-4 160v523l-123 16v16h256v-555q0 -140 20 -184q15 -34 48.5 -53t76.5 -19q106 0 184 101v678z" />
<glyph unicode="v" horiz-adv-x="913" d="M489 -6h-40l-302 772q-19 48 -46 65t-97 21v16h395v-16q-73 -4 -94.5 -11t-21.5 -24q0 -12 14 -53l213 -604h8l184 553q13 44 13 63q0 32 -30.5 48t-113.5 28v16h367v-16q-94 -11 -135 -34t-58 -75z" />
<glyph unicode="w" horiz-adv-x="1267" d="M872 -6h-22l-215 622l-203 -622h-22l-277 788q-12 38 -31.5 49.5t-91.5 20.5v16h367v-16q-62 -4 -81.5 -13t-19.5 -28q0 -12 13 -49l178 -545h8l146 447l-37 108q-13 39 -35.5 56.5t-77.5 23.5v16h346v-16q-62 -4 -81 -13t-19 -28q0 -15 12 -49l180 -545h9l157 496 q12 41 12 63q0 32 -26 48t-98 28v16h329v-16q-90 -15 -126.5 -42.5t-59.5 -98.5z" />
<glyph unicode="x" horiz-adv-x="942" d="M518 504l279 -418q24 -35 51 -49t90 -21v-16h-379v16q58 6 77 12.5t19 20.5q0 16 -24 55l-189 285l-192 -256q-29 -40 -29 -59q0 -21 25.5 -33.5t93.5 -24.5v-16h-338v16q83 13 126 36.5t81 74.5l217 287l-244 368q-24 34 -52 48.5t-91 21.5v16h379v-16q-58 -6 -77 -12.5 t-19 -20.5q0 -16 24 -55l156 -236l157 207q29 40 29 60t-25.5 32.5t-93.5 24.5v16h338v-16q-83 -13 -126 -36.5t-81 -74.5z" />
<glyph unicode="y" horiz-adv-x="925" d="M506 150h8l186 563q13 44 13 63q0 32 -30.5 48t-113.5 28v16h367v-16q-98 -15 -139 -43.5t-64 -97.5l-342 -1006q-36 -107 -78 -149q-54 -60 -123 -60q-58 0 -96.5 34t-38.5 85q0 41 24 65.5t64 24.5q29 0 47 -13.5t25 -33.5t12 -39.5t15 -33t28 -13.5q27 0 49.5 34 t49.5 113l80 244l-316 819q-15 39 -41 52.5t-96 17.5v16h395v-16q-73 -4 -95 -11t-22 -24q0 -9 15 -53z" />
<glyph unicode="z" horiz-adv-x="794" d="M117 868h598v-45l-512 -792h381l14 37q41 109 78 249l29 -2l-13 -315h-629v45l508 795h-360l-12 -33q-51 -136 -70 -240l-31 2z" />
<glyph unicode="{" horiz-adv-x="624" d="M190 618v-8q103 -26 151 -87t48 -165q0 -74 -36 -232t-36 -245q0 -209 146 -209q36 0 100 17l6 -23q-77 -22 -143 -22q-120 0 -187 64t-67 181q0 62 37 237.5t37 274.5q0 114 -43.5 158.5t-153.5 44.5v21q111 0 154 40t43 144q0 89 -37 248.5t-37 222.5q0 114 67 179 t187 65q62 0 143 -23l-6 -22q-60 16 -100 16q-72 0 -109 -53t-37 -154q0 -85 36 -227.5t36 -210.5q0 -97 -47.5 -152t-151.5 -80z" />
<glyph unicode="|" horiz-adv-x="425" d="M190 1413h46v-1689h-46v1689z" />
<glyph unicode="}" horiz-adv-x="624" d="M434 610v8q-104 25 -151 80t-47 152q0 68 35.5 210.5t35.5 227.5q0 207 -145 207q-32 0 -101 -16l-6 22q81 23 144 23q120 0 187 -65t67 -179q0 -63 -37 -222.5t-37 -248.5q0 -104 43 -144t153 -40v-21q-110 0 -153 -44.5t-43 -158.5q0 -99 37 -274.5t37 -237.5 q0 -117 -67 -181t-187 -64q-67 0 -144 22l6 23q73 -17 101 -17q145 0 145 209q0 87 -35.5 245t-35.5 232q0 104 47.5 165t150.5 87z" />
<glyph unicode="~" horiz-adv-x="909" d="M164 465h-8q0 79 39 127.5t104 48.5q53 0 182.5 -34t184.5 -34q70 0 86 74h10q0 -85 -39 -134.5t-105 -49.5q-57 0 -184.5 37t-183.5 37q-37 0 -59 -19t-27 -53z" />
<glyph unicode="&#xa1;" horiz-adv-x="434" d="M207 606h20q3 -63 9.5 -201.5t12 -228.5t13.5 -166q35 -359 35 -413q0 -47 -21.5 -74t-58.5 -27q-80 0 -80 94q0 24 5 80t14.5 153.5t15.5 178.5q18 221 35 604zM315 877q0 -42 -27.5 -70.5t-70.5 -28.5t-70.5 28.5t-27.5 70.5t27 70t71 28t71 -28t27 -70z" />
<glyph unicode="&#xa2;" horiz-adv-x="894" d="M469 1167h45v-278q113 -2 191.5 -53t78.5 -125q0 -36 -20 -57t-55 -21t-54 23t-25.5 57t-15 68t-32.5 59t-68 28v-788h21q147 0 247 129l19 24l8 -4l-8 -22q-37 -100 -112 -158.5t-175 -66.5v-258h-45v256q-160 6 -261.5 129.5t-101.5 314.5q0 190 100.5 318t262.5 145 v280zM244 455q0 -156 58.5 -251.5t166.5 -117.5v778q-100 -19 -162.5 -131.5t-62.5 -277.5z" />
<glyph unicode="&#xa3;" horiz-adv-x="1284" d="M473 680h-184l10 45h182l35 176q106 545 387 545q99 0 179.5 -57.5t80.5 -128.5q0 -35 -20.5 -56.5t-52.5 -21.5q-33 0 -53 24.5t-30 59t-20.5 69.5t-34 59.5t-61.5 24.5q-22 0 -37.5 -6.5t-32 -33t-29.5 -63t-32 -112.5t-38 -165t-48 -236l-17 -78h381l-10 -45h-379 q-41 -200 -64.5 -272.5t-88.5 -212.5q183 -86 340 -86q120 0 193.5 50t92.5 144h11q0 -145 -77 -232t-206 -87q-94 0 -192 47t-181 133q-69 -101 -126 -141.5t-128 -40.5q-72 0 -114.5 35.5t-42.5 95.5q0 71 56 116t144 45q54 0 119 -16q36 157 88 422zM381 231 q-62 19 -111 19q-77 0 -126.5 -38.5t-49.5 -98.5q0 -49 31.5 -78t85.5 -29q62 0 100 50.5t70 174.5z" />
<glyph unicode="&#xa4;" horiz-adv-x="1204" d="M156 295l145 145q-104 113 -104 271q0 157 104 270l-147 147l30 31l148 -147q119 104 270 104t270 -104l148 147l31 -31l-148 -147q105 -120 105 -270q0 -151 -105 -271l146 -145l-31 -31l-146 146q-115 -105 -270 -105t-270 105l-146 -146zM236 711q0 -152 107 -259.5 t259 -107.5t259.5 107.5t107.5 259.5q0 151 -107.5 257.5t-259.5 106.5t-259 -106.5t-107 -257.5z" />
<glyph unicode="&#xa5;" horiz-adv-x="1476" d="M674 319h-299l10 46h289v186l-4 8h-295l10 45h260l-416 776l-168 17v16h510v-16l-178 -17l416 -776h10l336 701q8 18 8 38t-13.5 30t-47.5 13l-125 11v16h436v-16l-115 -11q-50 -4 -68.5 -19t-41.5 -62l-336 -701h272l-10 -45h-283v-194h293l-10 -46h-283v-286l179 -17 v-16h-514v16l178 17v286z" />
<glyph unicode="&#xa6;" horiz-adv-x="430" d="M193 1413h45v-739h-45v739zM193 463h45v-739h-45v739z" />
<glyph unicode="&#xa7;" horiz-adv-x="1005" d="M471 -313q-88 0 -170 28t-132 73t-50 93q0 31 20.5 51.5t50.5 20.5q23 0 41.5 -13.5t31.5 -34.5t26 -47t30 -52t38.5 -47t56 -34.5t78.5 -13.5q102 0 166.5 67.5t64.5 174.5q0 57 -21 103t-56 78t-80.5 59t-96 50l-101 46t-96 51t-80.5 62t-56 83t-21 109 q0 106 63.5 185.5t171.5 115.5q-88 52 -137 118.5t-49 166.5q0 140 100.5 231.5t251.5 91.5q85 0 165 -28t129.5 -73t49.5 -93q0 -30 -21 -51t-51 -21q-31 0 -54 25t-41 60.5t-40 71t-62.5 60.5t-96.5 25q-89 0 -142 -57t-53 -150q0 -58 26 -106t68 -80.5t96.5 -64 t110.5 -56.5t110.5 -59.5t96.5 -71.5t68 -92.5t26 -123.5q0 -99 -52 -181.5t-142 -133.5q145 -102 145 -254q0 -153 -110.5 -257.5t-270.5 -104.5zM772 520q0 50 -18 93t-43 71.5t-69.5 58.5t-79 47t-91.5 44t-88 43q-63 -24 -99 -74.5t-36 -118.5q0 -57 26.5 -103t76.5 -81 t100 -60.5t119 -59.5t112 -61q90 74 90 201z" />
<glyph unicode="&#xa8;" horiz-adv-x="702" d="M92 1174q0 37 24.5 62.5t63.5 25.5t63.5 -25.5t24.5 -62.5q0 -38 -24.5 -63.5t-63.5 -25.5t-63.5 25.5t-24.5 63.5zM434 1174q0 37 24.5 62.5t63.5 25.5t63.5 -25.5t24.5 -62.5q0 -38 -24.5 -63.5t-63.5 -25.5t-63.5 25.5t-24.5 63.5z" />
<glyph unicode="&#xa9;" horiz-adv-x="1654" d="M1038 322q68 75 103 227l22 -2v-320h-22l-47 76q-136 -98 -277 -98q-123 0 -225.5 66t-161.5 181.5t-59 254.5q0 210 128.5 355.5t313.5 145.5q122 0 277 -84l32 68h23l14 -313l-24 -7q-19 109 -62 179q-41 64 -107.5 98.5t-148.5 34.5q-142 0 -219.5 -124.5 t-77.5 -352.5q0 -226 78 -351t219 -125q62 0 121 25t100 66zM109 705q0 146 57 280.5t153.5 232.5t229.5 157t278 59t278.5 -59t229.5 -157t153.5 -232.5t57.5 -280.5t-57.5 -279.5t-153.5 -231.5t-229.5 -156t-278.5 -58t-278 58t-229.5 156t-153.5 231.5t-57 279.5z M141 705q0 -189 91 -348t249 -252t346 -93q139 0 266 55t219 147.5t146.5 221t54.5 269.5q0 187 -92 347t-250.5 254.5t-343.5 94.5q-188 0 -346 -94.5t-249 -254.5t-91 -347z" />
<glyph unicode="&#xaa;" horiz-adv-x="684" d="M238 1085q-57 0 -98.5 38t-41.5 100q0 69 66.5 111.5t226.5 76.5v123q0 78 -16.5 107.5t-57.5 29.5q-40 0 -68 -21t-28 -55q0 -7 2 -19t2 -22q0 -33 -14.5 -53t-38.5 -20q-21 0 -34 14t-13 35q0 35 33.5 74.5t83.5 66.5q72 37 139 37q42 0 77 -18.5t46 -42.5 q7 -18 8.5 -42t1.5 -106v-268q0 -42 9.5 -62t33.5 -20q20 0 35 22l10 -10q-37 -69 -108 -69q-39 0 -65.5 22t-29.5 57l-6 3q-31 -40 -71.5 -64.5t-83.5 -24.5zM303 1147q63 0 88 59v185q-95 -28 -130.5 -58t-35.5 -84q0 -46 20.5 -74t57.5 -28z" />
<glyph unicode="&#xab;" horiz-adv-x="763" d="M414 61l-8 -6l-306 369v10l301 365l7 -4l-179 -365zM655 61l-8 -6l-305 369v10l301 365l6 -4l-178 -365z" />
<glyph unicode="&#xac;" horiz-adv-x="940" d="M158 758h635v-314h-45v269h-590v45z" />
<glyph unicode="&#xad;" horiz-adv-x="729" d="M133 442l14 45h451l-14 -45h-451z" />
<glyph unicode="&#xae;" horiz-adv-x="1654" d="M109 705q0 146 57 280.5t153.5 232.5t229.5 157t278 59t278.5 -59t229.5 -157t153.5 -232.5t57.5 -280.5t-57.5 -279.5t-153.5 -231.5t-229.5 -156t-278.5 -58t-278 58t-229.5 156t-153.5 231.5t-57 279.5zM141 705q0 -189 91 -348t249 -252t346 -93q139 0 266 55 t219 147.5t146.5 221t54.5 269.5q0 187 -92 347t-250.5 254.5t-343.5 94.5q-188 0 -346 -94.5t-249 -254.5t-91 -347zM455 236l102 10v923l-102 11v16h358q167 0 255.5 -67.5t88.5 -194.5q0 -107 -62.5 -172.5t-181.5 -85.5l252 -393q18 -29 36 -38t52 -9h21v-17h-164 q-34 0 -51.5 10t-34.5 39l-217 348q-21 33 -34.5 41.5t-47.5 8.5h-45v-420l123 -10v-17h-348v17zM680 690h129q114 0 168.5 59t54.5 183t-55 184t-168 60h-129v-486z" />
<glyph unicode="&#xaf;" horiz-adv-x="593" d="M92 1133v45h410v-45h-410z" />
<glyph unicode="&#xb0;" horiz-adv-x="698" d="M92 1450q0 114 73 189t185 75t183 -73t71 -189q0 -115 -70.5 -188.5t-185.5 -73.5q-114 0 -185 74t-71 186zM129 1452q0 -96 62 -160.5t157 -64.5q93 0 155 64.5t62 160.5t-61.5 159.5t-155.5 63.5q-95 0 -157 -63.5t-62 -159.5z" />
<glyph unicode="&#xb1;" horiz-adv-x="1028" d="M166 825v45h326v326h45v-326h325v-45h-325v-325h-45v325h-326zM207 223v45h614v-45h-614z" />
<glyph unicode="&#xb2;" horiz-adv-x="546" d="M453 1098h-402l-2 8l96 94q189 186 189 350q0 71 -31 109.5t-88 38.5q-87 0 -131 -90l-16 8q25 60 75.5 96.5t110.5 36.5q91 0 149 -50t58 -128q0 -54 -38 -108t-167 -183l-80 -80h213q30 0 42 8t18 33l14 57l14 -2z" />
<glyph unicode="&#xb3;" horiz-adv-x="524" d="M172 1415l-8 17q139 56 139 172q0 45 -22 70.5t-62 25.5q-77 0 -121 -101l-16 9q56 143 209 143q54 0 89.5 -33.5t35.5 -85.5q0 -50 -35.5 -93.5t-93.5 -65.5v-9q73 -1 122.5 -51.5t49.5 -122.5q0 -85 -67.5 -145t-164.5 -60q-70 0 -120 34t-50 81q0 45 41 45 q18 0 28.5 -13.5t31.5 -60.5q14 -40 25.5 -52.5t37.5 -12.5q60 0 91.5 38.5t31.5 110.5q0 75 -33 121.5t-86 46.5q-25 0 -53 -8z" />
<glyph unicode="&#xb4;" horiz-adv-x="397" d="M92 1073l92 299q14 43 64 43q27 0 42 -18t15 -45q0 -8 -2 -15t-9 -17.5t-13.5 -18.5t-22 -27.5t-27.5 -34.5l-133 -168z" />
<glyph unicode="&#xb5;" horiz-adv-x="1005" d="M242 104l-11 -4q0 -134 16.5 -235t33 -156t16.5 -78q0 -34 -16 -53.5t-45 -19.5q-31 0 -44.5 26t-13.5 84q0 30 15.5 269t15.5 376v523l-123 16v16h256v-555q0 -85 4 -122t16 -62q35 -72 125 -72q107 0 185 101v678l-123 16v16h256v-741l113 -25v-10l-224 -102h-12v139 l-6 2q-121 -151 -258 -151q-128 0 -176 124z" />
<glyph unicode="&#xb6;" horiz-adv-x="968" d="M604 -221h-45v833h-104q-172 0 -278.5 116t-106.5 282q0 185 116 294t316 109h385v-18l-156 -15v-1601h-45v1605h-82v-1605z" />
<glyph unicode="&#xb7;" horiz-adv-x="477" d="M133 487q0 45 30 75t77 30q46 0 75 -30t29 -75t-29 -75.5t-75 -30.5q-47 0 -77 30.5t-30 75.5z" />
<glyph unicode="&#xb8;" horiz-adv-x="555" d="M92 -420l4 6q45 -20 103 -20q65 0 104 25.5t39 68.5q0 40 -31.5 63t-85.5 23q-48 0 -78 -12l-6 6l113 262h25l-66 -154q22 5 55 5q86 0 140.5 -41.5t54.5 -106.5q0 -72 -63 -120t-158 -48q-101 0 -150 43z" />
<glyph unicode="&#xb9;" horiz-adv-x="391" d="M154 1122v529h-95v10q72 7 113.5 28.5t77.5 67.5l10 -2v-633l84 -8v-16h-285v16z" />
<glyph unicode="&#xba;" horiz-adv-x="741" d="M371 1708q123 0 200.5 -86.5t77.5 -224.5q0 -139 -77.5 -226.5t-200.5 -87.5t-201 87.5t-78 226.5q0 138 78 224.5t201 86.5zM217 1397q0 -138 40.5 -215.5t113.5 -77.5q72 0 112.5 77.5t40.5 215.5t-40.5 214.5t-112.5 76.5q-73 0 -113.5 -76.5t-40.5 -214.5z" />
<glyph unicode="&#xbb;" horiz-adv-x="763" d="M358 55l-8 6l185 369l-179 365l6 4l302 -365v-10zM117 55l-8 6l184 369l-178 365l6 4l301 -365v-10z" />
<glyph unicode="&#xbc;" horiz-adv-x="1062" d="M860 1413h51l-731 -1417h-51zM199 807v528h-95v11q72 7 113.5 28.5t77.5 67.5l10 -2v-633l84 -8v-17h-285v17zM778 25v125h-276l-2 6l366 503l19 -2v-430h80v-77h-80v-125l80 -9v-16h-281v16zM778 225v275h-8l-195 -269l3 -6h200z" />
<glyph unicode="&#xbd;" horiz-adv-x="1101" d="M860 1413h51l-731 -1417h-51zM199 807v528h-95v11q72 7 113.5 28.5t77.5 67.5l10 -2v-633l84 -8v-17h-285v17zM981 0h-401l-2 8l96 94q188 185 188 351q0 70 -31 108.5t-88 38.5q-87 0 -131 -90l-16 8q26 64 76.5 98.5t118.5 34.5q84 0 141 -51.5t57 -126.5 q0 -54 -38 -108t-167 -183l-79 -80h213q29 0 41 8t18 33l14 58l15 -2z" />
<glyph unicode="&#xbe;" horiz-adv-x="1110" d="M948 1413h51l-731 -1417h-51zM805 25v125h-277l-2 6l367 503l18 -2v-430h80v-77h-80v-125l80 -9v-16h-280v16zM805 225v275h-8l-195 -269l2 -6h201zM205 1098l-8 16q139 56 139 172q0 45 -22 70.5t-62 25.5q-77 0 -121 -100l-16 8q57 144 209 144q56 0 90.5 -32.5 t34.5 -80.5q0 -54 -35.5 -99t-94.5 -67v-8q73 -1 123 -51.5t50 -122.5q0 -85 -67.5 -145t-164.5 -60q-70 0 -120 34t-50 81q0 45 41 45q18 0 28 -13t31 -61q14 -40 26 -53t38 -13q55 0 84 39t29 111q0 74 -30.5 121t-78.5 47q-25 0 -53 -8z" />
<glyph unicode="&#xbf;" horiz-adv-x="720" d="M494 606h20l16 -475h-55q-188 0 -274 -40.5t-86 -129.5q0 -49 26 -89t67 -66.5t91 -49t100.5 -42t91.5 -40t67 -49t26 -63.5q0 -66 -90 -66q-97 0 -192.5 71t-155.5 185t-60 230q0 140 90 222.5t248 88.5l53 2zM610 877q0 -43 -27.5 -71t-70.5 -28t-70.5 28t-27.5 71 t27.5 70.5t70.5 27.5t70.5 -27.5t27.5 -70.5z" />
<glyph unicode="&#xc0;" horiz-adv-x="1347" d="M240 27l125 -11v-16h-437v16l115 11q51 4 72.5 20t38.5 62l501 1337h37l516 -1409l170 -21v-16h-501v16l167 21l-192 524h-496l-170 -452q-8 -21 -8 -37q0 -23 13.5 -32.5t48.5 -12.5zM610 1219h-8l-233 -625h471zM590 1925l92 -299l-6 -2l-133 168q-12 15 -27.5 34.5 t-22 27.5t-13.5 18.5t-9 17.5t-2 15q0 27 15 45t42 18q50 0 64 -43z" />
<glyph unicode="&#xc1;" horiz-adv-x="1347" d="M240 27l125 -11v-16h-437v16l115 11q51 4 72.5 20t38.5 62l501 1337h37l516 -1409l170 -21v-16h-501v16l167 21l-192 524h-496l-170 -452q-8 -21 -8 -37q0 -23 13.5 -32.5t48.5 -12.5zM610 1219h-8l-233 -625h471zM649 1626l92 299q14 43 64 43q27 0 42 -18t15 -45 q0 -8 -2 -15t-9 -17.5t-13.5 -18.5t-22 -27.5t-27.5 -34.5l-133 -168z" />
<glyph unicode="&#xc2;" horiz-adv-x="1347" d="M240 27l125 -11v-16h-437v16l115 11q51 4 72.5 20t38.5 62l501 1337h37l516 -1409l170 -21v-16h-501v16l167 21l-192 524h-496l-170 -452q-8 -21 -8 -37q0 -23 13.5 -32.5t48.5 -12.5zM610 1219h-8l-233 -625h471zM743 1925l134 -299l-7 -2l-190 217l-191 -217l-6 2 l133 299q18 43 64 43q42 0 63 -43z" />
<glyph unicode="&#xc3;" horiz-adv-x="1347" d="M240 27l125 -11v-16h-437v16l115 11q51 4 72.5 20t38.5 62l501 1337h37l516 -1409l170 -21v-16h-501v16l167 21l-192 524h-496l-170 -452q-8 -21 -8 -37q0 -23 13.5 -32.5t48.5 -12.5zM610 1219h-8l-233 -625h471zM432 1640h-8q0 80 39.5 128.5t103.5 48.5 q38 0 131.5 -34t132.5 -34q71 0 87 74h10q0 -85 -39 -135t-105 -50q-41 0 -133 37t-133 37q-37 0 -59 -19t-27 -53z" />
<glyph unicode="&#xc4;" horiz-adv-x="1347" d="M240 27l125 -11v-16h-437v16l115 11q51 4 72.5 20t38.5 62l501 1337h37l516 -1409l170 -21v-16h-501v16l167 21l-192 524h-496l-170 -452q-8 -21 -8 -37q0 -23 13.5 -32.5t48.5 -12.5zM610 1219h-8l-233 -625h471zM420 1726q0 38 24.5 63.5t63.5 25.5t63.5 -25.5 t24.5 -63.5q0 -37 -24.5 -62.5t-63.5 -25.5t-63.5 25.5t-24.5 62.5zM762 1726q0 38 24.5 63.5t63.5 25.5t63.5 -25.5t24.5 -63.5q0 -37 -24.5 -62.5t-63.5 -25.5t-63.5 25.5t-24.5 62.5z" />
<glyph unicode="&#xc5;" horiz-adv-x="1347" d="M240 27l125 -11v-16h-437v16l115 11q51 4 72.5 20t38.5 62l501 1337h37l516 -1409l170 -21v-16h-501v16l167 21l-192 524h-496l-170 -452q-8 -21 -8 -37q0 -23 13.5 -32.5t48.5 -12.5zM610 1219h-8l-233 -625h471zM545 1767q0 55 36 92t93 37t93 -37t36 -92t-36 -92 t-93 -37t-93 37t-36 92zM569 1767q0 -45 29 -74.5t76 -29.5q45 0 73.5 29.5t28.5 74.5t-28.5 74t-73.5 29q-47 0 -76 -29t-29 -74z" />
<glyph unicode="&#xc6;" horiz-adv-x="1742" d="M1356 1389h-340v-629h182q49 0 69 16.5t29 63.5l35 166h25v-525h-25l-35 166q-9 47 -29 63.5t-69 16.5h-182v-702h336q50 0 71.5 14.5t40.5 60.5l135 332l23 -2l-51 -430h-881v16l168 17v528h-393l-264 -452q-19 -31 -19 -50q0 -16 11.5 -22.5t39.5 -9.5l123 -11l-4 -16 h-434l4 16l117 11q52 4 76.5 20t52.5 62l690 1175v96l-168 17v16h883l29 -385l-21 -2l-115 287q-19 46 -40 61t-70 15zM858 1219h-8l-365 -625h373v625z" />
<glyph unicode="&#xc7;" horiz-adv-x="1384" d="M582 -428l4 6q45 -20 102 -20q65 0 104 25.5t39 68.5q0 40 -31 63t-85 23q-48 0 -78 -12l-6 6l100 237q-174 5 -317 103t-225.5 265.5t-82.5 369.5q0 204 85.5 374t233 267.5t323.5 97.5t405 -123l49 98h27l20 -460l-28 -9q-27 154 -91 260q-61 101 -159 155t-217 54 q-218 0 -334.5 -186t-116.5 -528q0 -340 117 -525.5t332 -185.5q92 0 178.5 39t146.5 104q99 111 152 336l26 -4v-471h-26l-70 113q-92 -67 -197.5 -106t-205.5 -40l-54 -127q18 4 56 4q86 0 140 -41t54 -106q0 -72 -63 -120t-158 -48q-100 0 -149 43z" />
<glyph unicode="&#xc8;" horiz-adv-x="1257" d="M408 760h303q49 0 69 16.5t29 63.5l35 166h24v-525h-24l-35 166q-9 47 -29 63.5t-69 16.5h-303v-702h458q50 0 72 14.5t41 60.5l135 332l23 -2l-52 -430h-1003v16l168 17v1347l-168 17v16h1005l29 -385l-20 -2l-115 287q-19 46 -40.5 61t-70.5 15h-462v-629zM639 1925 l92 -299l-6 -2l-133 168q-12 15 -27.5 34.5t-22 27.5t-13.5 18.5t-9 17.5t-2 15q0 27 15 45t42 18q50 0 64 -43z" />
<glyph unicode="&#xc9;" horiz-adv-x="1257" d="M408 760h303q49 0 69 16.5t29 63.5l35 166h24v-525h-24l-35 166q-9 47 -29 63.5t-69 16.5h-303v-702h458q50 0 72 14.5t41 60.5l135 332l23 -2l-52 -430h-1003v16l168 17v1347l-168 17v16h1005l29 -385l-20 -2l-115 287q-19 46 -40.5 61t-70.5 15h-462v-629zM575 1626 l93 299q14 43 63 43q27 0 42 -18t15 -45q0 -7 -2 -13.5t-5 -12t-10 -16t-13 -18t-19.5 -24t-23.5 -29.5l-133 -168z" />
<glyph unicode="&#xca;" horiz-adv-x="1257" d="M408 760h303q49 0 69 16.5t29 63.5l35 166h24v-525h-24l-35 166q-9 47 -29 63.5t-69 16.5h-303v-702h458q50 0 72 14.5t41 60.5l135 332l23 -2l-52 -430h-1003v16l168 17v1347l-168 17v16h1005l29 -385l-20 -2l-115 287q-19 46 -40.5 61t-70.5 15h-462v-629zM707 1925 l133 -299l-6 -2l-191 217l-190 -217l-7 2l134 299q18 43 63 43q43 0 64 -43z" />
<glyph unicode="&#xcb;" horiz-adv-x="1257" d="M408 760h303q49 0 69 16.5t29 63.5l35 166h24v-525h-24l-35 166q-9 47 -29 63.5t-69 16.5h-303v-702h458q50 0 72 14.5t41 60.5l135 332l23 -2l-52 -430h-1003v16l168 17v1347l-168 17v16h1005l29 -385l-20 -2l-115 287q-19 46 -40.5 61t-70.5 15h-462v-629zM385 1726 q0 38 24.5 63.5t63.5 25.5t63.5 -25.5t24.5 -63.5q0 -37 -24.5 -62.5t-63.5 -25.5t-63.5 25.5t-24.5 62.5zM727 1726q0 38 24.5 63.5t63.5 25.5t63.5 -25.5t24.5 -63.5q0 -37 -24.5 -62.5t-63.5 -25.5t-63.5 25.5t-24.5 62.5z" />
<glyph unicode="&#xcc;" horiz-adv-x="657" d="M250 1380l-168 17v16h493v-16l-167 -17v-1347l167 -17v-16h-493v16l168 17v1347zM283 1925l92 -299l-6 -2l-133 168q-12 15 -27.5 34.5t-22 27.5t-13.5 18.5t-9 17.5t-2 15q0 27 15 45t42 18q50 0 64 -43z" />
<glyph unicode="&#xcd;" horiz-adv-x="657" d="M250 1380l-168 17v16h493v-16l-167 -17v-1347l167 -17v-16h-493v16l168 17v1347zM285 1626l92 299q14 43 63 43q27 0 42.5 -18t15.5 -45q0 -8 -2 -15t-9 -17.5t-13.5 -18.5t-22 -27.5t-27.5 -34.5l-133 -168z" />
<glyph unicode="&#xce;" horiz-adv-x="657" d="M250 1380l-168 17v16h493v-16l-167 -17v-1347l167 -17v-16h-493v16l168 17v1347zM393 1925l133 -299l-6 -2l-190 217l-191 -217l-6 2l133 299q18 43 64 43q42 0 63 -43z" />
<glyph unicode="&#xcf;" horiz-adv-x="657" d="M250 1380l-168 17v16h493v-16l-167 -17v-1347l167 -17v-16h-493v16l168 17v1347zM72 1726q0 38 24.5 63.5t63.5 25.5t63.5 -25.5t24.5 -63.5q0 -37 -24.5 -62.5t-63.5 -25.5t-63.5 25.5t-24.5 62.5zM414 1726q0 38 24.5 63.5t63.5 25.5t63.5 -25.5t24.5 -63.5 q0 -37 -24.5 -62.5t-63.5 -25.5t-63.5 25.5t-24.5 62.5z" />
<glyph unicode="&#xd0;" horiz-adv-x="1464" d="M104 698v45h168v637l-168 17v16h545q281 0 436 -108q126 -88 195.5 -242.5t69.5 -347.5q0 -195 -70 -354t-195 -250q-79 -58 -182.5 -84.5t-253.5 -26.5h-545v16l168 17v665h-168zM430 25h201q163 0 245 26t136 94q66 85 103.5 239t37.5 341q0 376 -141 543 q-58 67 -142 94t-239 27h-201v-646h256v-45h-256v-673z" />
<glyph unicode="&#xd1;" d="M123 1397h-35v16h305l807 -1130h8v1005q0 50 -12.5 69.5t-48.5 22.5l-166 17v16h489v-16l-147 -17q-49 -6 -65.5 -24t-16.5 -68v-1321h-20l-920 1305h-8v-1147q0 -50 12.5 -69t48.5 -23l146 -17v-16h-449v16l148 17q36 4 48.5 23t12.5 69v1192q-33 49 -60 64.5t-77 15.5z M539 1640h-9q0 79 39.5 128t104.5 49q38 0 131.5 -34t132.5 -34q70 0 86 74h10q0 -85 -38.5 -135t-104.5 -50q-41 0 -133 37t-133 37q-37 0 -59 -19t-27 -53z" />
<glyph unicode="&#xd2;" d="M752 1446q178 0 326.5 -97.5t233.5 -267t85 -374.5q0 -153 -50 -290.5t-136 -236t-205.5 -156t-253.5 -57.5q-178 0 -326.5 97.5t-234 267.5t-85.5 375t85.5 374.5t234 267t326.5 97.5zM303 707q0 -341 117 -527t332 -186t331.5 185.5t116.5 527.5q0 343 -116.5 528.5 t-331.5 185.5t-332 -185.5t-117 -528.5zM688 1925l92 -299l-6 -2l-133 168q-12 15 -27.5 34.5t-22 27.5t-13.5 18.5t-9 17.5t-2 15q0 27 15.5 45t42.5 18q49 0 63 -43z" />
<glyph unicode="&#xd3;" d="M752 1446q178 0 326.5 -97.5t233.5 -267t85 -374.5q0 -153 -50 -290.5t-136 -236t-205.5 -156t-253.5 -57.5q-178 0 -326.5 97.5t-234 267.5t-85.5 375t85.5 374.5t234 267t326.5 97.5zM303 707q0 -341 117 -527t332 -186t331.5 185.5t116.5 527.5q0 343 -116.5 528.5 t-331.5 185.5t-332 -185.5t-117 -528.5zM731 1626l92 299q14 43 64 43q27 0 42 -18t15 -45q0 -8 -2 -15t-9 -17.5t-13.5 -18.5t-22 -27.5t-27.5 -34.5l-133 -168z" />
<glyph unicode="&#xd4;" d="M752 1446q178 0 326.5 -97.5t233.5 -267t85 -374.5q0 -153 -50 -290.5t-136 -236t-205.5 -156t-253.5 -57.5q-178 0 -326.5 97.5t-234 267.5t-85.5 375t85.5 374.5t234 267t326.5 97.5zM303 707q0 -341 117 -527t332 -186t331.5 185.5t116.5 527.5q0 343 -116.5 528.5 t-331.5 185.5t-332 -185.5t-117 -528.5zM819 1925l133 -299l-6 -2l-190 217l-191 -217l-6 2l133 299q18 43 64 43q42 0 63 -43z" />
<glyph unicode="&#xd5;" d="M752 1446q178 0 326.5 -97.5t233.5 -267t85 -374.5q0 -153 -50 -290.5t-136 -236t-205.5 -156t-253.5 -57.5q-178 0 -326.5 97.5t-234 267.5t-85.5 375t85.5 374.5t234 267t326.5 97.5zM303 707q0 -341 117 -527t332 -186t331.5 185.5t116.5 527.5q0 343 -116.5 528.5 t-331.5 185.5t-332 -185.5t-117 -528.5zM512 1640h-8q0 80 39.5 128.5t103.5 48.5q38 0 131.5 -34t132.5 -34q70 0 86 74h11q0 -85 -39 -135t-105 -50q-41 0 -133 37t-133 37q-37 0 -59 -19t-27 -53z" />
<glyph unicode="&#xd6;" d="M752 1446q178 0 326.5 -97.5t233.5 -267t85 -374.5q0 -153 -50 -290.5t-136 -236t-205.5 -156t-253.5 -57.5q-178 0 -326.5 97.5t-234 267.5t-85.5 375t85.5 374.5t234 267t326.5 97.5zM303 707q0 -341 117 -527t332 -186t331.5 185.5t116.5 527.5q0 343 -116.5 528.5 t-331.5 185.5t-332 -185.5t-117 -528.5zM498 1726q0 38 24.5 63.5t63.5 25.5t63.5 -25.5t24.5 -63.5q0 -37 -24.5 -62.5t-63.5 -25.5t-63.5 25.5t-24.5 62.5zM840 1726q0 38 24.5 63.5t63.5 25.5t63.5 -25.5t24.5 -63.5q0 -37 -24.5 -62.5t-63.5 -25.5t-63.5 25.5 t-24.5 62.5z" />
<glyph unicode="&#xd7;" horiz-adv-x="954" d="M176 979l31 29l270 -271l271 271l30 -29l-272 -272l274 -273l-30 -28l-273 272l-272 -272l-31 28l272 273z" />
<glyph unicode="&#xd8;" d="M752 1446q166 0 307 -86l90 176h47l-102 -199q140 -98 221.5 -264t81.5 -366q0 -153 -50 -290.5t-136 -236t-205.5 -156t-253.5 -57.5q-168 0 -312 86l-104 -207h-47l117 232q-139 98 -219.5 264t-80.5 365q0 205 85.5 374.5t234 267t326.5 97.5zM752 -6 q215 0 331.5 185.5t116.5 527.5q0 378 -141 563l-588 -1157q110 -119 281 -119zM303 707q0 -377 139 -560l588 1156q-109 118 -278 118q-215 0 -332 -185.5t-117 -528.5z" />
<glyph unicode="&#xd9;" horiz-adv-x="1361" d="M1098 492v796q0 49 -12.5 67.5t-49.5 24.5l-145 17v16h448v-16l-147 -17q-37 -6 -49.5 -24.5t-12.5 -67.5v-786q0 -245 -79 -363q-56 -80 -152.5 -126t-212.5 -46q-95 0 -187 31t-153 84q-63 56 -90 142t-27 237v919l-168 17v16h504v-16l-178 -17v-987q0 -149 28 -229.5 t93 -118.5q73 -45 192 -45q103 0 188 41.5t138 116.5q39 58 55.5 134.5t16.5 199.5zM643 1925l92 -299l-6 -2l-133 168q-12 15 -27.5 34.5t-22 27.5t-13.5 18.5t-9 17.5t-2 15q0 27 15.5 45t42.5 18q49 0 63 -43z" />
<glyph unicode="&#xda;" horiz-adv-x="1361" d="M1098 492v796q0 49 -12.5 67.5t-49.5 24.5l-145 17v16h448v-16l-147 -17q-37 -6 -49.5 -24.5t-12.5 -67.5v-786q0 -245 -79 -363q-56 -80 -152.5 -126t-212.5 -46q-95 0 -187 31t-153 84q-63 56 -90 142t-27 237v919l-168 17v16h504v-16l-178 -17v-987q0 -149 28 -229.5 t93 -118.5q73 -45 192 -45q103 0 188 41.5t138 116.5q39 58 55.5 134.5t16.5 199.5zM737 1626l92 299q14 43 64 43q27 0 42 -18t15 -45q0 -7 -2 -13.5t-5 -12t-10 -16t-13 -18t-19.5 -24t-23.5 -29.5l-134 -168z" />
<glyph unicode="&#xdb;" horiz-adv-x="1361" d="M1098 492v796q0 49 -12.5 67.5t-49.5 24.5l-145 17v16h448v-16l-147 -17q-37 -6 -49.5 -24.5t-12.5 -67.5v-786q0 -245 -79 -363q-56 -80 -152.5 -126t-212.5 -46q-95 0 -187 31t-153 84q-63 56 -90 142t-27 237v919l-168 17v16h504v-16l-178 -17v-987q0 -149 28 -229.5 t93 -118.5q73 -45 192 -45q103 0 188 41.5t138 116.5q39 58 55.5 134.5t16.5 199.5zM784 1925l134 -299l-7 -2l-190 217l-191 -217l-6 2l133 299q18 43 64 43q42 0 63 -43z" />
<glyph unicode="&#xdc;" horiz-adv-x="1361" d="M1098 492v796q0 49 -12.5 67.5t-49.5 24.5l-145 17v16h448v-16l-147 -17q-37 -6 -49.5 -24.5t-12.5 -67.5v-786q0 -245 -79 -363q-56 -80 -152.5 -126t-212.5 -46q-95 0 -187 31t-153 84q-63 56 -90 142t-27 237v919l-168 17v16h504v-16l-178 -17v-987q0 -149 28 -229.5 t93 -118.5q73 -45 192 -45q103 0 188 41.5t138 116.5q39 58 55.5 134.5t16.5 199.5zM467 1726q0 38 24.5 63.5t63.5 25.5t63.5 -25.5t24.5 -63.5q0 -37 -24.5 -62.5t-63.5 -25.5t-63.5 25.5t-24.5 62.5zM809 1726q0 38 24.5 63.5t63.5 25.5t63.5 -25.5t24.5 -63.5 q0 -37 -24.5 -62.5t-63.5 -25.5t-63.5 25.5t-24.5 62.5z" />
<glyph unicode="&#xdd;" horiz-adv-x="1253" d="M987 1386l-125 11v16h436v-16l-114 -11q-50 -4 -69 -19t-42 -62l-356 -746v-526l178 -17v-16h-514v16l178 17v518l-444 829l-168 17v16h510v-16l-178 -17l415 -776h11l335 701q9 20 9 38q0 20 -14 30t-48 13zM657 1626l93 299q14 43 63 43q27 0 42 -18t15 -45 q0 -7 -2 -13.5t-5 -12t-10 -16t-13 -18t-19.5 -24t-23.5 -29.5l-133 -168z" />
<glyph unicode="&#xde;" horiz-adv-x="1169" d="M82 16l168 17v1347l-168 17v16h526v-16l-200 -17v-256h192q240 0 368 -102t128 -289q0 -199 -127 -303t-369 -104h-192v-293l200 -17v-16h-526v16zM408 350h186q165 0 241 94.5t76 298.5q0 81 -14 141.5t-47.5 111.5t-97.5 77.5t-158 26.5h-186v-750z" />
<glyph unicode="&#xdf;" horiz-adv-x="1032" d="M504 1501q125 0 200.5 -60.5t75.5 -160.5q0 -60 -30 -108.5t-72.5 -81.5t-85.5 -65t-73 -75.5t-30 -97.5q0 -51 26.5 -91.5t69.5 -68t94.5 -54t103 -57.5t94.5 -69.5t69.5 -99.5t26.5 -138q0 -135 -82 -214.5t-221 -79.5q-129 0 -248 38l-10 265h24q41 -281 234 -281 q86 0 135 52t49 143q0 62 -22 112.5t-57.5 86t-78 67t-85.5 64t-78.5 69t-57.5 89.5t-22 118q0 46 11 84t28 65t38 52.5t42 51.5t38 54.5t28 69.5t11 90q0 98 -45 152.5t-125 54.5q-188 0 -188 -330v-1147h-258v16l125 17v899q0 206 9 281.5t40 129.5q44 75 121.5 116.5 t175.5 41.5z" />
<glyph unicode="&#xe0;" horiz-adv-x="800" d="M266 -14q-78 0 -128 54t-50 140q0 103 93 165t317 106v186q0 118 -26.5 164.5t-92.5 46.5q-63 0 -102 -34t-39 -91q0 -7 1 -26t1 -29q0 -52 -20 -81.5t-54 -29.5q-31 0 -50.5 21t-19.5 53q0 50 48.5 107.5t123.5 97.5q91 51 191 51q116 0 155 -86q11 -28 14 -67t3 -148 v-391q0 -73 14 -101t51 -28q58 0 82 38l8 -4q-25 -51 -65 -78.5t-88 -27.5q-54 0 -89 32t-38 85l-6 2q-46 -59 -108.5 -93t-125.5 -34zM354 63q42 0 81 20t63 56v289q-158 -38 -215.5 -82t-57.5 -127q0 -72 34.5 -114t94.5 -42zM360 1372l93 -299l-7 -2l-133 168 q-10 13 -23.5 29.5t-19.5 24t-13 18t-10 16t-5 12t-2 13.5q0 27 15 45t42 18q49 0 63 -43z" />
<glyph unicode="&#xe1;" horiz-adv-x="800" d="M266 -14q-78 0 -128 54t-50 140q0 103 93 165t317 106v186q0 118 -26.5 164.5t-92.5 46.5q-63 0 -102 -34t-39 -91q0 -7 1 -26t1 -29q0 -52 -20 -81.5t-54 -29.5q-31 0 -50.5 21t-19.5 53q0 50 48.5 107.5t123.5 97.5q91 51 191 51q116 0 155 -86q11 -28 14 -67t3 -148 v-391q0 -73 14 -101t51 -28q58 0 82 38l8 -4q-25 -51 -65 -78.5t-88 -27.5q-54 0 -89 32t-38 85l-6 2q-46 -59 -108.5 -93t-125.5 -34zM354 63q42 0 81 20t63 56v289q-158 -38 -215.5 -82t-57.5 -127q0 -72 34.5 -114t94.5 -42zM365 1073l92 299q14 43 63 43q27 0 42.5 -18 t15.5 -45q0 -8 -2 -15t-9 -17.5t-13.5 -18.5t-22 -27.5t-27.5 -34.5l-133 -168z" />
<glyph unicode="&#xe2;" horiz-adv-x="800" d="M266 -14q-78 0 -128 54t-50 140q0 103 93 165t317 106v186q0 118 -26.5 164.5t-92.5 46.5q-63 0 -102 -34t-39 -91q0 -7 1 -26t1 -29q0 -52 -20 -81.5t-54 -29.5q-31 0 -50.5 21t-19.5 53q0 50 48.5 107.5t123.5 97.5q91 51 191 51q116 0 155 -86q11 -28 14 -67t3 -148 v-391q0 -73 14 -101t51 -28q58 0 82 38l8 -4q-25 -51 -65 -78.5t-88 -27.5q-54 0 -89 32t-38 85l-6 2q-46 -59 -108.5 -93t-125.5 -34zM354 63q42 0 81 20t63 56v289q-158 -38 -215.5 -82t-57.5 -127q0 -72 34.5 -114t94.5 -42zM473 1372l133 -299l-6 -2l-190 217l-191 -217 l-6 2l133 299q18 43 64 43q42 0 63 -43z" />
<glyph unicode="&#xe3;" horiz-adv-x="800" d="M266 -14q-78 0 -128 54t-50 140q0 103 93 165t317 106v186q0 118 -26.5 164.5t-92.5 46.5q-63 0 -102 -34t-39 -91q0 -7 1 -26t1 -29q0 -52 -20 -81.5t-54 -29.5q-31 0 -50.5 21t-19.5 53q0 50 48.5 107.5t123.5 97.5q91 51 191 51q116 0 155 -86q11 -28 14 -67t3 -148 v-391q0 -73 14 -101t51 -28q58 0 82 38l8 -4q-25 -51 -65 -78.5t-88 -27.5q-54 0 -89 32t-38 85l-6 2q-46 -59 -108.5 -93t-125.5 -34zM354 63q42 0 81 20t63 56v289q-158 -38 -215.5 -82t-57.5 -127q0 -72 34.5 -114t94.5 -42zM145 1087h-8q0 79 39.5 128t104.5 49 q38 0 131.5 -34t132.5 -34q70 0 86 74h10q0 -85 -38.5 -135t-104.5 -50q-41 0 -133.5 37t-133.5 37q-37 0 -59 -19t-27 -53z" />
<glyph unicode="&#xe4;" horiz-adv-x="800" d="M266 -14q-78 0 -128 54t-50 140q0 103 93 165t317 106v186q0 118 -26.5 164.5t-92.5 46.5q-63 0 -102 -34t-39 -91q0 -7 1 -26t1 -29q0 -52 -20 -81.5t-54 -29.5q-31 0 -50.5 21t-19.5 53q0 50 48.5 107.5t123.5 97.5q91 51 191 51q116 0 155 -86q11 -28 14 -67t3 -148 v-391q0 -73 14 -101t51 -28q58 0 82 38l8 -4q-25 -51 -65 -78.5t-88 -27.5q-54 0 -89 32t-38 85l-6 2q-46 -59 -108.5 -93t-125.5 -34zM354 63q42 0 81 20t63 56v289q-158 -38 -215.5 -82t-57.5 -127q0 -72 34.5 -114t94.5 -42zM152 1174q0 37 24.5 62.5t63.5 25.5 t63.5 -25.5t24.5 -62.5q0 -38 -24.5 -63.5t-63.5 -25.5t-63.5 25.5t-24.5 63.5zM494 1174q0 37 24.5 62.5t63.5 25.5t63.5 -25.5t24.5 -62.5q0 -38 -24.5 -63.5t-63.5 -25.5t-63.5 25.5t-24.5 63.5z" />
<glyph unicode="&#xe5;" horiz-adv-x="800" d="M266 -14q-78 0 -128 54t-50 140q0 103 93 165t317 106v186q0 118 -26.5 164.5t-92.5 46.5q-63 0 -102 -34t-39 -91q0 -7 1 -26t1 -29q0 -52 -20 -81.5t-54 -29.5q-31 0 -50.5 21t-19.5 53q0 50 48.5 107.5t123.5 97.5q91 51 191 51q116 0 155 -86q11 -28 14 -67t3 -148 v-391q0 -73 14 -101t51 -28q58 0 82 38l8 -4q-25 -51 -65 -78.5t-88 -27.5q-54 0 -89 32t-38 85l-6 2q-46 -59 -108.5 -93t-125.5 -34zM354 63q42 0 81 20t63 56v289q-158 -38 -215.5 -82t-57.5 -127q0 -72 34.5 -114t94.5 -42zM260 1214q0 55 36 92t93 37t93 -37t36 -92 t-36 -92t-93 -37t-93 37t-36 92zM285 1214q0 -45 28.5 -74.5t75.5 -29.5q45 0 74 29.5t29 74.5t-29 74t-74 29q-47 0 -75.5 -29t-28.5 -74z" />
<glyph unicode="&#xe6;" horiz-adv-x="1255" d="M266 -14q-78 0 -128 54t-50 140q0 103 93 165t317 106v186q0 118 -26.5 164.5t-92.5 46.5q-63 0 -102 -34t-39 -91q0 -7 1 -26t1 -29q0 -52 -20 -81.5t-54 -29.5q-31 0 -50.5 21t-19.5 53q0 50 48.5 107.5t123.5 97.5q94 51 191 51q117 0 162 -101q38 47 108 75t152 28 q145 0 220.5 -84t80.5 -248l-13 -10h-534q-2 -27 -2 -80q0 -186 68 -285.5t194 -99.5q73 0 139.5 33.5t112.5 93.5l18 24l9 -4l-9 -22q-40 -107 -122 -167t-189 -60q-105 0 -189 49.5t-124 132.5q-55 -84 -128 -130t-147 -46zM870 866q-95 0 -155.5 -78.5t-75.5 -218.5 l377 15q6 21 6 80q0 202 -152 202zM354 63q108 0 174 123q-20 58 -28 242q-159 -40 -217 -84t-58 -125q0 -72 34.5 -114t94.5 -42z" />
<glyph unicode="&#xe7;" horiz-adv-x="831" d="M291 -420l4 6q45 -20 102 -20q65 0 104.5 25.5t39.5 68.5q0 40 -31.5 63t-85.5 23q-48 0 -78 -12l-6 6l102 240q-159 6 -259.5 129.5t-100.5 314.5q0 203 113.5 334t291.5 131q114 0 193.5 -51.5t79.5 -126.5q0 -35 -20.5 -56.5t-55.5 -21.5q-36 0 -54.5 24t-25.5 58.5 t-15.5 69.5t-35 59t-74.5 24q-113 0 -186.5 -116.5t-73.5 -296.5q0 -178 76.5 -276.5t214.5 -98.5q148 0 248 129l18 24l8 -4l-8 -22q-40 -106 -120 -165t-189 -62l-55 -132q22 5 55 5q86 0 140.5 -41.5t54.5 -106.5q0 -72 -63.5 -120t-158.5 -48q-100 0 -149 43z" />
<glyph unicode="&#xe8;" horiz-adv-x="866" d="M793 557l-13 -10h-553q-4 -27 -4 -84q0 -187 75.5 -284t211.5 -97q148 0 248 127l18 24l8 -4l-8 -22q-40 -109 -121.5 -168t-193.5 -59q-169 0 -274 125.5t-105 326.5q0 203 114 330t298 127q143 0 219.5 -85t79.5 -247zM471 866q-95 0 -159 -80.5t-83 -216.5l398 15 q6 24 6 82q0 110 -42.5 155t-119.5 45zM410 1372l92 -299l-6 -2l-134 168q-10 13 -23.5 29.5t-19.5 24t-13 18t-10 16t-5 12t-2 13.5q0 27 15 45t42 18q50 0 64 -43z" />
<glyph unicode="&#xe9;" horiz-adv-x="866" d="M793 557l-13 -10h-553q-4 -27 -4 -84q0 -187 75.5 -284t211.5 -97q148 0 248 127l18 24l8 -4l-8 -22q-40 -109 -121.5 -168t-193.5 -59q-169 0 -274 125.5t-105 326.5q0 203 114 330t298 127q143 0 219.5 -85t79.5 -247zM471 866q-95 0 -159 -80.5t-83 -216.5l398 15 q6 24 6 82q0 110 -42.5 155t-119.5 45zM440 1073l92 299q14 43 64 43q27 0 42 -18t15 -45q0 -7 -2 -13.5t-5 -12t-10 -16t-13 -18t-19.5 -24t-23.5 -29.5l-134 -168z" />
<glyph unicode="&#xea;" horiz-adv-x="866" d="M793 557l-13 -10h-553q-4 -27 -4 -84q0 -187 75.5 -284t211.5 -97q148 0 248 127l18 24l8 -4l-8 -22q-40 -109 -121.5 -168t-193.5 -59q-169 0 -274 125.5t-105 326.5q0 203 114 330t298 127q143 0 219.5 -85t79.5 -247zM471 866q-95 0 -159 -80.5t-83 -216.5l398 15 q6 24 6 82q0 110 -42.5 155t-119.5 45zM528 1372l134 -299l-7 -2l-190 217l-191 -217l-6 2l133 299q18 43 64 43q42 0 63 -43z" />
<glyph unicode="&#xeb;" horiz-adv-x="866" d="M793 557l-13 -10h-553q-4 -27 -4 -84q0 -187 75.5 -284t211.5 -97q148 0 248 127l18 24l8 -4l-8 -22q-40 -109 -121.5 -168t-193.5 -59q-169 0 -274 125.5t-105 326.5q0 203 114 330t298 127q143 0 219.5 -85t79.5 -247zM471 866q-95 0 -159 -80.5t-83 -216.5l398 15 q6 24 6 82q0 110 -42.5 155t-119.5 45zM207 1174q0 37 24.5 62.5t63.5 25.5t63.5 -25.5t24.5 -62.5q0 -38 -24.5 -63.5t-63.5 -25.5t-63.5 25.5t-24.5 63.5zM549 1174q0 37 24.5 62.5t63.5 25.5t63.5 -25.5t24.5 -62.5q0 -38 -24.5 -63.5t-63.5 -25.5t-63.5 25.5t-24.5 63.5 z" />
<glyph unicode="&#xec;" horiz-adv-x="468" d="M309 33l125 -17v-16h-383v16l125 17v717l-121 45v14l238 80h16v-856zM176 1372l92 -299l-6 -2l-133 168q-12 15 -27.5 34.5t-22 27.5t-13.5 18.5t-9 17.5t-2 15q0 27 15.5 45t42.5 18q49 0 63 -43z" />
<glyph unicode="&#xed;" horiz-adv-x="468" d="M309 33l125 -17v-16h-383v16l125 17v717l-121 45v14l238 80h16v-856zM221 1073l92 299q14 43 64 43q27 0 42 -18t15 -45q0 -8 -2 -15t-9 -17.5t-13.5 -18.5t-22 -27.5t-27.5 -34.5l-133 -168z" />
<glyph unicode="&#xee;" horiz-adv-x="468" d="M309 33l125 -17v-16h-383v16l125 17v717l-121 45v14l238 80h16v-856zM303 1372l133 -299l-6 -2l-190 217l-191 -217l-6 2l133 299q18 43 64 43q42 0 63 -43z" />
<glyph unicode="&#xef;" horiz-adv-x="471" d="M311 33l125 -17v-16h-383v16l125 17v717l-121 45v14l238 80h16v-856zM-16 1174q0 37 24.5 62.5t63.5 25.5t63.5 -25.5t24.5 -62.5q0 -38 -24.5 -63.5t-63.5 -25.5t-63.5 25.5t-24.5 63.5zM326 1174q0 37 24.5 62.5t63.5 25.5t63.5 -25.5t24.5 -62.5q0 -38 -24.5 -63.5 t-63.5 -25.5t-63.5 25.5t-24.5 63.5z" />
<glyph unicode="&#xf0;" horiz-adv-x="1046" d="M854 1403v-39l-238 -137q154 -145 239 -332t85 -393q0 -251 -115 -393t-317 -142q-192 0 -308 123t-116 324q0 197 109.5 314.5t293.5 117.5q137 0 238 -88q-19 140 -58 244.5t-108 191.5l-270 -156v37l248 144q-95 108 -287 227l8 16q187 -79 334 -211zM516 -8 q114 0 175 114.5t61 329.5q0 147 -23 285q-35 35 -87 55.5t-107 20.5q-126 0 -193.5 -104t-67.5 -296q0 -191 64 -298t178 -107z" />
<glyph unicode="&#xf1;" horiz-adv-x="946" d="M309 33l125 -17v-16h-383v16l125 17v706l-121 45v15l232 80h16v-129q133 139 275 139q63 0 115 -27.5t75 -73.5q14 -28 18.5 -73.5t4.5 -159.5v-522l122 -17v-16h-381v16l125 17v522q0 140 -20 184q-17 35 -54 54.5t-87 19.5q-105 0 -187 -88v-692zM236 1087h-9 q0 79 39.5 128t104.5 49q38 0 131.5 -34t132.5 -34q70 0 86 74h10q0 -85 -38.5 -135t-104.5 -50q-41 0 -133 37t-133 37q-37 0 -59 -19t-27 -53z" />
<glyph unicode="&#xf2;" horiz-adv-x="974" d="M487 889q180 0 293 -126.5t113 -328.5t-113 -328t-293 -126t-292.5 126t-112.5 328t112.5 328.5t292.5 126.5zM233 434q0 -204 67 -319t187 -115q119 0 186.5 115t67.5 319t-67.5 319t-186.5 115q-120 0 -187 -115t-67 -319zM440 1372l92 -299l-6 -2l-133 168 q-12 15 -27.5 34.5t-22 27.5t-13.5 18.5t-9 17.5t-2 15q0 27 15.5 45t42.5 18q49 0 63 -43z" />
<glyph unicode="&#xf3;" horiz-adv-x="974" d="M487 889q180 0 293 -126.5t113 -328.5t-113 -328t-293 -126t-292.5 126t-112.5 328t112.5 328.5t292.5 126.5zM233 434q0 -204 67 -319t187 -115q119 0 186.5 115t67.5 319t-67.5 319t-186.5 115q-120 0 -187 -115t-67 -319zM473 1073l92 299q14 43 64 43q27 0 42 -18 t15 -45q0 -8 -2 -15t-9 -17.5t-13.5 -18.5t-22 -27.5t-27.5 -34.5l-133 -168z" />
<glyph unicode="&#xf4;" horiz-adv-x="974" d="M487 889q180 0 293 -126.5t113 -328.5t-113 -328t-293 -126t-292.5 126t-112.5 328t112.5 328.5t292.5 126.5zM233 434q0 -204 67 -319t187 -115q119 0 186.5 115t67.5 319t-67.5 319t-186.5 115q-120 0 -187 -115t-67 -319zM557 1372l133 -299l-6 -2l-190 217l-191 -217 l-6 2l133 299q18 43 64 43q42 0 63 -43z" />
<glyph unicode="&#xf5;" horiz-adv-x="974" d="M487 889q180 0 293 -126.5t113 -328.5t-113 -328t-293 -126t-292.5 126t-112.5 328t112.5 328.5t292.5 126.5zM233 434q0 -204 67 -319t187 -115q119 0 186.5 115t67.5 319t-67.5 319t-186.5 115q-120 0 -187 -115t-67 -319zM244 1087h-8q0 80 39.5 128.5t103.5 48.5 q38 0 131.5 -34t132.5 -34q70 0 86 74h10q0 -85 -38.5 -135t-104.5 -50q-41 0 -133 37t-133 37q-37 0 -59 -19t-27 -53z" />
<glyph unicode="&#xf6;" horiz-adv-x="974" d="M487 889q180 0 293 -126.5t113 -328.5t-113 -328t-293 -126t-292.5 126t-112.5 328t112.5 328.5t292.5 126.5zM233 434q0 -204 67 -319t187 -115q119 0 186.5 115t67.5 319t-67.5 319t-186.5 115q-120 0 -187 -115t-67 -319zM229 1174q0 37 24.5 62.5t63.5 25.5t64 -25.5 t25 -62.5t-25 -63t-64 -26t-63.5 25.5t-24.5 63.5zM571 1174q0 37 24.5 62.5t63.5 25.5t64 -25.5t25 -62.5t-25 -63t-64 -26t-63.5 25.5t-24.5 63.5z" />
<glyph unicode="&#xf7;" horiz-adv-x="1019" d="M162 682v45h696v-45h-696zM408 1028q0 42 27 70t71 28t71 -28t27 -70t-27 -70t-71 -28t-71 28t-27 70zM408 381q0 42 27 70t71 28t71 -28t27 -70t-27 -70t-71 -28t-71 28t-27 70z" />
<glyph unicode="&#xf8;" horiz-adv-x="974" d="M487 889q118 0 215 -62l99 177h47l-113 -201q75 -59 116.5 -155t41.5 -214q0 -202 -113 -328t-293 -126q-100 0 -188 43l-86 -156h-47l98 176q-86 59 -134 160t-48 231q0 202 112.5 328.5t292.5 126.5zM233 434q0 -205 70 -323l363 653q-66 104 -179 104 q-120 0 -187 -115t-67 -319zM741 434q0 176 -51 287l-362 -647q65 -74 159 -74q119 0 186.5 115t67.5 319z" />
<glyph unicode="&#xf9;" horiz-adv-x="907" d="M616 836l-122 16v16h256v-741l112 -25v-10l-223 -102h-12v139l-6 2q-121 -151 -261 -151q-63 0 -112 27t-72 73q-14 28 -18 73t-4 160v523l-123 16v16h256v-555q0 -140 20 -184q15 -34 48.5 -53t76.5 -19q106 0 184 101v678zM352 1372l92 -299l-6 -2l-133 168 q-12 15 -27.5 34.5t-22 27.5t-13.5 18.5t-9 17.5t-2 15q0 27 15.5 45t42.5 18q49 0 63 -43z" />
<glyph unicode="&#xfa;" horiz-adv-x="907" d="M616 836l-122 16v16h256v-741l112 -25v-10l-223 -102h-12v139l-6 2q-121 -151 -261 -151q-63 0 -112 27t-72 73q-14 28 -18 73t-4 160v523l-123 16v16h256v-555q0 -140 20 -184q15 -34 48.5 -53t76.5 -19q106 0 184 101v678zM446 1073l93 299q14 43 63 43q27 0 42 -18 t15 -45q0 -7 -2 -13.5t-5 -12t-10 -16t-13 -18t-19.5 -24t-23.5 -29.5l-133 -168z" />
<glyph unicode="&#xfb;" horiz-adv-x="907" d="M616 836l-122 16v16h256v-741l112 -25v-10l-223 -102h-12v139l-6 2q-121 -151 -261 -151q-63 0 -112 27t-72 73q-14 28 -18 73t-4 160v523l-123 16v16h256v-555q0 -140 20 -184q15 -34 48.5 -53t76.5 -19q106 0 184 101v678zM520 1372l133 -299l-6 -2l-190 217l-191 -217 l-6 2l133 299q18 43 64 43q42 0 63 -43z" />
<glyph unicode="&#xfc;" horiz-adv-x="907" d="M616 836l-122 16v16h256v-741l112 -25v-10l-223 -102h-12v139l-6 2q-121 -151 -261 -151q-63 0 -112 27t-72 73q-14 28 -18 73t-4 160v523l-123 16v16h256v-555q0 -140 20 -184q15 -34 48.5 -53t76.5 -19q106 0 184 101v678zM193 1174q0 37 24.5 62.5t63.5 25.5 t63.5 -25.5t24.5 -62.5q0 -38 -24.5 -63.5t-63.5 -25.5t-63.5 25.5t-24.5 63.5zM535 1174q0 37 24.5 62.5t63.5 25.5t63.5 -25.5t24.5 -62.5q0 -38 -24.5 -63.5t-63.5 -25.5t-63.5 25.5t-24.5 63.5z" />
<glyph unicode="&#xfd;" horiz-adv-x="925" d="M506 150h8l186 563q13 44 13 63q0 32 -30.5 48t-113.5 28v16h367v-16q-98 -15 -139 -43.5t-64 -97.5l-342 -1006q-36 -107 -78 -149q-54 -60 -123 -60q-58 0 -96.5 34t-38.5 85q0 41 24 65.5t64 24.5q29 0 47 -13.5t25 -33.5t12 -39.5t15 -33t28 -13.5q27 0 49.5 34 t49.5 113l80 244l-316 819q-15 39 -41 52.5t-96 17.5v16h395v-16q-73 -4 -95 -11t-22 -24q0 -9 15 -53zM518 1073l92 299q14 43 64 43q27 0 42 -18t15 -45q0 -8 -2 -15t-9 -17.5t-13.5 -18.5t-22 -27.5t-27.5 -34.5l-133 -168z" />
<glyph unicode="&#xfe;" horiz-adv-x="954" d="M870 459q0 -211 -117.5 -345t-301.5 -134q-89 0 -168 36v-458l184 -23v-14h-442v16l125 17v1783l-121 45v15l237 80h17v-705q108 117 252 117q152 0 243.5 -119.5t91.5 -310.5zM465 0q111 0 184.5 119t73.5 305q0 187 -69 295t-189 108q-115 0 -182 -86v-596 q0 -59 54.5 -102t127.5 -43z" />
<glyph unicode="&#xff;" horiz-adv-x="925" d="M506 150h8l186 563q13 44 13 63q0 32 -30.5 48t-113.5 28v16h367v-16q-98 -15 -139 -43.5t-64 -97.5l-342 -1006q-36 -107 -78 -149q-54 -60 -123 -60q-58 0 -96.5 34t-38.5 85q0 41 24 65.5t64 24.5q29 0 47 -13.5t25 -33.5t12 -39.5t15 -33t28 -13.5q27 0 49.5 34 t49.5 113l80 244l-316 819q-15 39 -41 52.5t-96 17.5v16h395v-16q-73 -4 -95 -11t-22 -24q0 -9 15 -53zM229 1174q0 37 24.5 62.5t63.5 25.5t64 -25.5t25 -62.5t-25 -63t-64 -26t-63.5 25.5t-24.5 63.5zM571 1174q0 37 24.5 62.5t63.5 25.5t64 -25.5t25 -62.5t-25 -63 t-64 -26t-63.5 25.5t-24.5 63.5z" />
<glyph unicode="&#x152;" horiz-adv-x="2017" d="M752 1446q148 0 260 -33h837l29 -385l-20 -2l-115 287q-19 46 -40.5 61t-70.5 15h-463v-629h304q49 0 69 16.5t29 63.5l35 166h24v-525h-24l-35 166q-9 47 -29 63.5t-69 16.5h-304v-702h459q50 0 72 14.5t41 60.5l135 332l22 -2l-51 -430h-833q-132 -33 -262 -33 q-178 0 -326.5 97.5t-234 267.5t-85.5 375t85.5 374.5t234 267t326.5 97.5zM303 707q0 -341 117 -527t332 -186q141 0 260 90v1245q-102 92 -260 92q-215 0 -332 -185.5t-117 -528.5z" />
<glyph unicode="&#x153;" horiz-adv-x="1525" d="M1452 557l-12 -10h-553q-4 -27 -4 -84q0 -187 75 -284t211 -97q148 0 248 127l19 24l8 -4l-8 -22q-40 -109 -122 -168t-194 -59q-102 0 -182.5 47.5t-130.5 134.5q-53 -87 -136 -134.5t-184 -47.5q-180 0 -292.5 126t-112.5 328t112.5 328.5t292.5 126.5q102 0 186 -50 t136 -139q55 89 143.5 139t200.5 50q143 0 219.5 -85t79.5 -247zM233 434q0 -204 67 -319t187 -115q119 0 186.5 114.5t67.5 317.5v21q-3 195 -70.5 305t-183.5 110q-120 0 -187 -115t-67 -319zM1130 866q-95 0 -158.5 -80.5t-82.5 -216.5l397 15q6 24 6 82q0 110 -42.5 155 t-119.5 45z" />
<glyph unicode="&#x178;" horiz-adv-x="1253" d="M987 1386l-125 11v16h436v-16l-114 -11q-50 -4 -69 -19t-42 -62l-356 -746v-526l178 -17v-16h-514v16l178 17v518l-444 829l-168 17v16h510v-16l-178 -17l415 -776h11l335 701q9 20 9 38q0 20 -14 30t-48 13zM403 1726q0 37 25 63t64 26t63.5 -25.5t24.5 -63.5 q0 -37 -24.5 -62.5t-63.5 -25.5t-64 25.5t-25 62.5zM745 1726q0 37 25 63t64 26t63.5 -25.5t24.5 -63.5q0 -37 -24.5 -62.5t-63.5 -25.5t-64 25.5t-25 62.5z" />
<glyph unicode="&#x2c6;" horiz-adv-x="577" d="M352 1372l133 -299l-6 -2l-190 217l-191 -217l-6 2l133 299q18 43 64 43q42 0 63 -43z" />
<glyph unicode="&#x2dc;" horiz-adv-x="688" d="M100 1087h-8q0 79 39.5 128t104.5 49q38 0 131.5 -34t132.5 -34q70 0 86 74h10q0 -85 -38.5 -135t-104.5 -50q-41 0 -133.5 37t-133.5 37q-37 0 -59 -19t-27 -53z" />
<glyph unicode="&#x2000;" horiz-adv-x="984" />
<glyph unicode="&#x2001;" horiz-adv-x="1968" />
<glyph unicode="&#x2002;" horiz-adv-x="984" />
<glyph unicode="&#x2003;" horiz-adv-x="1968" />
<glyph unicode="&#x2004;" horiz-adv-x="656" />
<glyph unicode="&#x2005;" horiz-adv-x="492" />
<glyph unicode="&#x2006;" horiz-adv-x="328" />
<glyph unicode="&#x2007;" horiz-adv-x="328" />
<glyph unicode="&#x2008;" horiz-adv-x="246" />
<glyph unicode="&#x2009;" horiz-adv-x="393" />
<glyph unicode="&#x200a;" horiz-adv-x="109" />
<glyph unicode="&#x2010;" horiz-adv-x="729" d="M133 442l14 45h451l-14 -45h-451z" />
<glyph unicode="&#x2011;" horiz-adv-x="729" d="M133 442l14 45h451l-14 -45h-451z" />
<glyph unicode="&#x2012;" horiz-adv-x="729" d="M133 442l14 45h451l-14 -45h-451z" />
<glyph unicode="&#x2013;" horiz-adv-x="1015" d="M133 442l14 45h738l-15 -45h-737z" />
<glyph unicode="&#x2014;" horiz-adv-x="1392" d="M133 442l14 45h1115l-15 -45h-1114z" />
<glyph unicode="&#x2018;" horiz-adv-x="382" d="M248 1462l8 -10q-31 -29 -49.5 -76t-18.5 -94q0 -36 12 -63.5t27 -41t27 -33.5t12 -42q0 -31 -18 -50.5t-47 -19.5q-40 0 -63 35t-23 98q0 78 35.5 157.5t97.5 139.5z" />
<glyph unicode="&#x2019;" horiz-adv-x="380" d="M143 1032l-8 10q31 29 49.5 76t18.5 94q0 36 -12 63.5t-27 41.5t-27 34t-12 42q0 31 18 50t47 19q40 0 63 -35t23 -98q0 -78 -35.5 -157.5t-97.5 -139.5z" />
<glyph unicode="&#x201a;" horiz-adv-x="423" d="M156 -227l-9 10q31 29 49.5 76t18.5 94q0 36 -12 63.5t-27 41t-27 33.5t-12 42q0 31 18.5 50.5t47.5 19.5q40 0 63 -35t23 -98q0 -78 -35.5 -157.5t-97.5 -139.5z" />
<glyph unicode="&#x201c;" horiz-adv-x="608" d="M248 1462l8 -10q-31 -29 -49.5 -76t-18.5 -94q0 -36 12 -63.5t27 -41t27 -33.5t12 -42q0 -31 -18 -50.5t-47 -19.5q-40 0 -63 35t-23 98q0 78 35.5 157.5t97.5 139.5zM473 1462l8 -10q-31 -29 -49 -75.5t-18 -94.5q0 -36 12 -63.5t27 -41t27 -33.5t12 -42 q0 -31 -18.5 -50.5t-47.5 -19.5q-40 0 -63 35t-23 98q0 78 35.5 157.5t97.5 139.5z" />
<glyph unicode="&#x201d;" horiz-adv-x="606" d="M369 1032l-9 10q31 29 49.5 76t18.5 94q0 36 -12 63.5t-27 41.5t-27 34t-12 42q0 31 18.5 50t47.5 19q40 0 63 -35t23 -98q0 -78 -35.5 -157.5t-97.5 -139.5zM143 1032l-8 10q31 29 49.5 76t18.5 94q0 36 -12 63.5t-27 41.5t-27 34t-12 42q0 31 18 50t47 19q40 0 63 -35 t23 -98q0 -78 -35.5 -157.5t-97.5 -139.5z" />
<glyph unicode="&#x201e;" horiz-adv-x="649" d="M381 -227l-8 10q31 29 49 75.5t18 94.5q0 36 -12 63.5t-27 41t-27 33.5t-12 42q0 31 18.5 50.5t47.5 19.5q40 0 63 -35t23 -98q0 -78 -35.5 -157.5t-97.5 -139.5zM156 -227l-9 10q31 29 49.5 76t18.5 94q0 36 -12 63.5t-27 41t-27 33.5t-12 42q0 31 18.5 50.5t47.5 19.5 q40 0 63 -35t23 -98q0 -78 -35.5 -157.5t-97.5 -139.5z" />
<glyph unicode="&#x2022;" horiz-adv-x="649" d="M188 743q0 59 38.5 97.5t99.5 38.5t98 -38.5t37 -97.5q0 -58 -37.5 -97.5t-97.5 -39.5q-61 0 -99.5 39.5t-38.5 97.5z" />
<glyph unicode="&#x2026;" horiz-adv-x="1345" d="M131 98q0 45 30 75t77 30q46 0 75 -30t29 -75t-29 -75.5t-75 -30.5q-47 0 -77 30.5t-30 75.5zM567 98q0 45 30 75t77 30q46 0 75 -30t29 -75t-29 -75.5t-75 -30.5q-47 0 -77 30.5t-30 75.5zM1004 98q0 45 29.5 75t76.5 30q46 0 75 -30t29 -75t-29 -75.5t-75 -30.5 q-47 0 -76.5 30.5t-29.5 75.5z" />
<glyph unicode="&#x202f;" horiz-adv-x="393" />
<glyph unicode="&#x2039;" horiz-adv-x="522" d="M414 61l-8 -6l-306 369v10l301 365l7 -4l-179 -365z" />
<glyph unicode="&#x203a;" horiz-adv-x="522" d="M117 55l-8 6l184 369l-178 365l6 4l301 -365v-10z" />
<glyph unicode="&#x205f;" horiz-adv-x="492" />
<glyph unicode="&#x2070;" horiz-adv-x="626" d="M313 1749q103 0 174.5 -97t71.5 -235t-71.5 -235t-174.5 -97t-174 97t-71 235t71 235t174 97zM197 1417q0 -311 116 -311q117 0 117 311q0 312 -117 312q-116 0 -116 -312z" />
<glyph unicode="&#x2074;" horiz-adv-x="557" d="M305 1122v125h-276l-2 6l366 504l19 -2v-430h80v-78h-80v-125l80 -8v-16h-281v16zM305 1323v274h-8l-195 -268l2 -6h201z" />
<glyph unicode="&#x2075;" horiz-adv-x="520" d="M158 1636l-19 -131q42 13 88 13q101 0 163.5 -55t62.5 -146q0 -97 -68.5 -164.5t-169.5 -67.5q-68 0 -117 34t-49 81q0 20 11 31.5t30 11.5q21 0 33.5 -14t18.5 -34.5t13 -40.5t25.5 -34t48.5 -14q49 0 76 46.5t27 123.5q0 75 -32.5 116.5t-94.5 41.5q-50 0 -92 -33l-9 2 l50 334h260q12 16 20 32l8 -4l-32 -129h-252z" />
<glyph unicode="&#x2076;" horiz-adv-x="544" d="M276 1085q-97 0 -153.5 64.5t-56.5 173.5q0 147 88 262.5t239 171.5l6 -12q-95 -61 -141 -128t-55 -163q39 45 100 45q86 0 137.5 -54.5t51.5 -144.5q0 -95 -60.5 -155t-155.5 -60zM283 1106q38 0 60 48.5t22 127.5q0 89 -24.5 136.5t-70.5 47.5q-42 0 -69 -43 q-11 -36 -11 -123q0 -85 26 -139.5t67 -54.5z" />
<glyph unicode="&#x2077;" horiz-adv-x="446" d="M119 1737h295l6 -6q-71 -176 -104 -272.5t-99 -317.5q-7 -26 -25.5 -41t-39.5 -15q-26 0 -40 16t-14 40q0 14 6 26l246 473h-260q-24 -34 -33 -63l-10 4l62 184l8 -2q0 -18 2 -26z" />
<glyph unicode="&#x2078;" horiz-adv-x="559" d="M332 1475q87 -52 124.5 -96.5t37.5 -104.5q0 -79 -64 -134t-156 -55q-87 0 -146.5 48.5t-59.5 117.5q0 50 42 95t115 71q-71 40 -103 79.5t-32 94.5q0 68 55 113t138 45q77 0 126.5 -37t49.5 -94q0 -42 -35.5 -82.5t-91.5 -60.5zM315 1485q43 43 43 131q0 50 -21.5 81.5 t-57.5 31.5q-35 0 -56.5 -28.5t-21.5 -70.5q0 -96 114 -145zM242 1407q-52 -39 -52 -152q0 -68 24.5 -108.5t66.5 -40.5q41 0 66.5 35t25.5 88q0 108 -131 178z" />
<glyph unicode="&#x2079;" horiz-adv-x="544" d="M268 1749q97 0 154 -64.5t57 -173.5q0 -147 -88 -262.5t-239 -171.5l-7 13q95 61 141.5 128t55.5 162q-39 -45 -100 -45q-86 0 -137.5 54.5t-51.5 144.5q0 95 60 155t155 60zM262 1729q-38 0 -60 -49t-22 -128q0 -89 24 -136.5t70 -47.5q43 0 70 43q10 33 10 123 q0 85 -25.5 140t-66.5 55z" />
<glyph unicode="&#x2080;" horiz-adv-x="630" d="M315 393q103 0 174.5 -97t71.5 -235t-71.5 -234.5t-174.5 -96.5t-174 96.5t-71 234.5t71 235t174 97zM199 61q0 -311 116 -311q117 0 117 311q0 312 -117 312q-116 0 -116 -312z" />
<glyph unicode="&#x2081;" horiz-adv-x="391" d="M154 -231v528h-95v10q72 7 113.5 28.5t77.5 67.5l10 -2v-632l84 -9v-16h-285v16z" />
<glyph unicode="&#x2082;" horiz-adv-x="546" d="M453 -258h-402l-2 8l96 94q189 186 189 351q0 70 -31 108.5t-88 38.5q-87 0 -131 -90l-16 8q26 64 76 98.5t118 34.5q85 0 142 -51.5t57 -126.5q0 -54 -38 -108t-167 -183l-80 -80h213q30 0 42 8t18 33l14 58l14 -2z" />
<glyph unicode="&#x2083;" horiz-adv-x="524" d="M172 57l-8 17q139 56 139 172q0 45 -22 70.5t-62 25.5q-77 0 -121 -100l-16 8q56 143 209 143q54 0 89.5 -33.5t35.5 -85.5q0 -50 -35.5 -93.5t-93.5 -65.5v-9q73 -1 122.5 -51.5t49.5 -122.5q0 -85 -67.5 -144.5t-164.5 -59.5q-70 0 -120 33.5t-50 80.5q0 45 41 45 q18 0 28.5 -13t31.5 -60q14 -41 25.5 -53.5t37.5 -12.5q55 0 84 39t29 111q0 74 -30.5 121t-78.5 47q-21 0 -53 -9z" />
<glyph unicode="&#x2084;" horiz-adv-x="550" d="M301 -231v125h-276l-2 6l366 503l19 -2v-430h79v-77h-79v-125l79 -9v-16h-280v16zM301 -31v275h-8l-195 -269l2 -6h201z" />
<glyph unicode="&#x2085;" horiz-adv-x="520" d="M158 281l-19 -131q39 12 88 12q101 0 163.5 -55t62.5 -146q0 -97 -68.5 -164t-169.5 -67q-68 0 -117 33.5t-49 80.5q0 20 11 31.5t30 11.5q21 0 33.5 -14t18.5 -34t13 -40.5t25.5 -34.5t48.5 -14q49 0 76 46.5t27 123.5q0 75 -32.5 116.5t-94.5 41.5q-50 0 -92 -33l-9 2 l50 334h260q10 14 20 33l8 -4l-32 -129h-252z" />
<glyph unicode="&#x2086;" horiz-adv-x="544" d="M276 -270q-97 0 -153.5 64t-56.5 173q0 147 88 262.5t239 171.5l6 -12q-95 -61 -141 -128t-55 -163q39 45 100 45q86 0 137.5 -54t51.5 -144q0 -95 -60.5 -155t-155.5 -60zM283 -250q38 0 60 48.5t22 127.5q0 89 -24.5 137t-70.5 48q-42 0 -69 -43q-11 -36 -11 -123 q0 -85 26 -140t67 -55z" />
<glyph unicode="&#x2087;" horiz-adv-x="446" d="M119 381h295l6 -6q-71 -176 -104 -272.5t-99 -317.5q-7 -25 -25.5 -40t-39.5 -15q-26 0 -40 16t-14 39q0 15 6 27l246 473h-260q-23 -33 -33 -64l-10 4l62 185l8 -2q0 -19 2 -27z" />
<glyph unicode="&#x2088;" horiz-adv-x="561" d="M332 119q87 -52 124.5 -96.5t37.5 -104.5q0 -79 -64 -133.5t-156 -54.5q-87 0 -146.5 48.5t-59.5 117.5q0 50 42 94.5t115 70.5q-70 40 -102.5 80t-32.5 95q0 68 55 112.5t138 44.5q77 0 126.5 -37t49.5 -94q0 -42 -35.5 -82.5t-91.5 -60.5zM315 129q43 43 43 131 q0 50 -21.5 81.5t-57.5 31.5q-35 0 -56.5 -28.5t-21.5 -70.5q0 -96 114 -145zM242 51q-52 -39 -52 -151q0 -68 24.5 -109t66.5 -41q41 0 66.5 35t25.5 88q0 108 -131 178z" />
<glyph unicode="&#x2089;" horiz-adv-x="544" d="M268 393q97 0 154 -64t57 -173q0 -147 -88.5 -263t-238.5 -172l-7 13q95 61 141.5 128.5t55.5 162.5q-39 -45 -100 -45q-86 0 -137.5 54t-51.5 144q0 95 60 155t155 60zM262 373q-38 0 -60 -48.5t-22 -127.5q0 -89 24 -137t70 -48q43 0 70 43q10 33 10 123 q0 85 -25.5 140t-66.5 55z" />
<glyph unicode="&#x20ac;" horiz-adv-x="1177" d="M733 1421q-133 0 -211.5 -143.5t-95.5 -417.5h428l-10 -45h-420q-2 -37 -2 -110v-84h395l-10 -46h-383q13 -286 90.5 -434.5t212.5 -148.5q66 0 104.5 39.5t67.5 138.5q20 80 80 80q34 0 56 -22.5t22 -57.5q0 -75 -98.5 -139t-215.5 -64q-192 0 -334.5 172.5 t-175.5 435.5h-165l10 46h151q-4 58 -4 88q0 36 4 106h-125l11 45h121q35 257 178.5 421.5t335.5 164.5q118 0 212.5 -62.5t94.5 -140.5q0 -35 -22 -57.5t-56 -22.5q-60 0 -80 80q-29 102 -65 140t-101 38z" />
<glyph unicode="&#x2122;" horiz-adv-x="1642" d="M1313 1733h200l-8 -17l-63 -8v-586l80 -8v-16h-277v16l76 8v541h-8l-217 -580h-9l-247 580h-9v-500q0 -23 5 -31.5t22 -9.5l66 -8v-16h-211v16l67 8q17 1 23 10t6 31v543q-13 10 -33 10h-43v17h199l198 -463h9zM336 1712h-127q-23 0 -33.5 -6.5t-19.5 -28.5l-58 -131 l-6 2l35 199h12q25 -14 66 -14h389q33 0 65 14h11l20 -199l-6 -2l-53 131q-9 22 -18.5 28.5t-32.5 6.5h-138v-590l99 -8v-16h-305v16l100 8v590z" />
<glyph unicode="&#x2153;" horiz-adv-x="1091" d="M868 1413h52l-732 -1417h-51zM207 807v528h-94v11q71 7 112.5 28.5t77.5 67.5l10 -2v-633l84 -8v-17h-284v17zM711 315l-9 17q140 56 140 172q0 45 -22 70.5t-62 25.5q-77 0 -121 -100l-16 8q56 143 208 143q54 0 89.5 -33.5t35.5 -85.5q0 -50 -35.5 -93.5t-93.5 -65.5 v-8q73 -1 122.5 -52t49.5 -123q0 -85 -67 -144.5t-164 -59.5q-70 0 -120 33.5t-50 80.5q0 45 41 45q18 0 28 -13t31 -60q14 -40 26 -53t38 -13q55 0 83.5 38.5t28.5 111.5q0 75 -30.5 121.5t-77.5 46.5q-22 0 -53 -9z" />
<glyph unicode="&#x2154;" horiz-adv-x="1146" d="M961 1413h51l-731 -1417h-52zM752 315l-9 17q140 56 140 172q0 45 -22 70.5t-62 25.5q-77 0 -121 -100l-16 8q56 143 208 143q54 0 89.5 -33.5t35.5 -85.5q0 -50 -35.5 -93.5t-93.5 -65.5v-8q73 -1 122.5 -52t49.5 -123q0 -85 -67 -144.5t-164 -59.5q-70 0 -120 33.5 t-50 80.5q0 45 41 45q18 0 28 -13t31 -60q14 -40 26 -53t38 -13q55 0 83.5 38.5t28.5 111.5q0 75 -30.5 121.5t-77.5 46.5q-21 0 -53 -9zM496 782h-402l-2 9l96 94q189 186 189 350q0 70 -31 108.5t-88 38.5q-87 0 -131 -90l-16 8q26 65 76.5 99.5t117.5 34.5 q84 0 141.5 -52t57.5 -127q0 -54 -38 -107.5t-167 -182.5l-80 -80h213q30 0 42 8t18 33l14 57l14 -2z" />
<glyph unicode="&#x215b;" horiz-adv-x="1087" d="M868 1413h52l-732 -1417h-51zM207 807v528h-94v11q71 7 112.5 28.5t77.5 67.5l10 -2v-633l84 -8v-17h-284v17zM834 369q86 -52 123.5 -96.5t37.5 -104.5q0 -79 -63.5 -133.5t-155.5 -54.5q-87 0 -147 48t-60 117q0 50 42.5 95t115.5 71q-71 40 -103 79.5t-32 94.5 q0 68 54.5 113t137.5 45q77 0 127 -37t50 -94q0 -42 -35.5 -82.5t-91.5 -60.5zM817 379q43 43 43 131q0 50 -22 81.5t-58 31.5q-35 0 -56.5 -28.5t-21.5 -70.5q0 -96 115 -145zM743 301q-51 -39 -51 -151q0 -68 24 -109t66 -41q41 0 66.5 35t25.5 88q0 108 -131 178z" />
<glyph unicode="&#x215c;" horiz-adv-x="1114" d="M895 1413h51l-731 -1417h-51zM860 369q87 -52 124.5 -96.5t37.5 -104.5q0 -79 -63.5 -133.5t-155.5 -54.5q-87 0 -147 48t-60 117q0 50 42.5 95t115.5 71q-71 40 -103.5 79.5t-32.5 94.5q0 68 55 113t138 45q77 0 126.5 -37t49.5 -94q0 -42 -35.5 -82.5t-91.5 -60.5z M844 379q43 43 43 131q0 50 -22 81.5t-58 31.5q-35 0 -56.5 -28.5t-21.5 -70.5q0 -96 115 -145zM770 301q-51 -39 -51 -151q0 -68 24 -109t66 -41q41 0 66.5 35t25.5 88q0 108 -131 178zM213 1098l-8 16q139 56 139 172q0 45 -22 70.5t-62 25.5q-77 0 -121 -100l-16 8 q57 144 209 144q56 0 90.5 -32.5t34.5 -80.5q0 -54 -35 -99t-94 -67v-8q73 -1 122.5 -51.5t49.5 -122.5q0 -85 -67.5 -145t-164.5 -60q-70 0 -120 34t-50 81q0 45 41 45q18 0 28.5 -13.5t31.5 -60.5q14 -41 25.5 -53.5t37.5 -12.5q55 0 84 39t29 111q0 74 -30.5 121 t-78.5 47q-25 0 -53 -8z" />
<glyph unicode="&#x215d;" horiz-adv-x="1101" d="M889 1413h51l-731 -1417h-51zM844 369q87 -52 124.5 -96.5t37.5 -104.5q0 -79 -64 -133.5t-156 -54.5q-87 0 -146.5 48t-59.5 117q0 50 42 95t115 71q-71 40 -103 79.5t-32 94.5q0 68 55 113t138 45q77 0 126.5 -37t49.5 -94q0 -42 -35.5 -82.5t-91.5 -60.5zM827 379 q43 43 43 131q0 50 -21.5 81.5t-57.5 31.5q-35 0 -56.5 -28.5t-21.5 -70.5q0 -96 114 -145zM754 301q-52 -39 -52 -151q0 -68 24.5 -109t66.5 -41q41 0 66.5 35t25.5 88q0 108 -131 178zM197 1319l-19 -131q39 12 88 12q101 0 163.5 -55t62.5 -146q0 -97 -68.5 -164 t-169.5 -67q-68 0 -117 34t-49 81q0 20 11 31.5t30 11.5q21 0 33.5 -14t18.5 -34.5t13 -41t25.5 -34.5t48.5 -14q49 0 76 46.5t27 123.5q0 75 -32.5 116.5t-94.5 41.5q-50 0 -92 -33l-9 2l50 334h260q10 14 20 33l8 -4l-32 -129h-252z" />
<glyph unicode="&#x215e;" horiz-adv-x="1073" d="M817 1413h51l-731 -1417h-51zM825 369q87 -52 124.5 -96.5t37.5 -104.5q0 -79 -63.5 -133.5t-155.5 -54.5q-87 0 -147 48t-60 117q0 50 42.5 95t115.5 71q-71 40 -103 79.5t-32 94.5q0 68 54.5 113t137.5 45q77 0 126.5 -37t49.5 -94q0 -42 -35.5 -82.5t-91.5 -60.5z M809 379q43 43 43 131q0 50 -22 81.5t-58 31.5q-35 0 -56.5 -28.5t-21.5 -70.5q0 -96 115 -145zM735 301q-51 -39 -51 -151q0 -68 24 -109t66 -41q41 0 66.5 35t25.5 88q0 108 -131 178zM197 1419h295l6 -6q-71 -176 -104 -272.5t-99 -317.5q-7 -25 -26 -40t-40 -15 q-26 0 -39.5 15.5t-13.5 39.5q0 15 6 27l246 473h-260q-24 -34 -33 -63l-10 4l61 184l9 -2q0 -19 2 -27z" />
<glyph unicode="&#x25fc;" horiz-adv-x="870" d="M0 870h870v-870h-870v870z" />
<glyph unicode="&#xfb06;" horiz-adv-x="1251" d="M401 889q25 0 37 -2q-78 50 -78 160q0 107 86.5 182.5t208.5 75.5q158 0 242.5 -113t87.5 -324h234l-13 -32h-221v-627q0 -69 23 -107q24 -49 92 -49q61 0 131 70l8 -6q-31 -63 -87 -100t-120 -37q-68 0 -117 36q-34 25 -48.5 63.5t-14.5 102.5v656h-96l12 30h90v129 q0 287 -209 287q-100 0 -163.5 -68t-63.5 -176q0 -65 22.5 -107.5t61.5 -51.5q53 -10 80 -21v-227h-23q-28 123 -72.5 178t-117.5 55q-68 0 -109 -41.5t-41 -111.5q0 -50 22 -86.5t57 -59.5t77.5 -42.5t85 -41.5t77.5 -49.5t57 -74.5t22 -109q0 -124 -80 -197t-215 -73 q-112 0 -215 36l-11 267h25q22 -143 73 -212t136 -69q75 0 120.5 48t45.5 126q0 52 -22 91t-57.5 63.5t-78 45t-85 43t-78 50t-57.5 73t-22 105.5q0 116 78.5 179t222.5 63z" />
<glyph horiz-adv-x="1368" d="M975 997q0 287 -230 287q-119 0 -193.5 -67.5t-74.5 -174.5q0 -63 19 -105.5t55 -51.5q117 -30 178 -109t64 -219l-13 -10h-553q-4 -27 -4 -84q0 -187 75.5 -284t211.5 -97q148 0 248 127l18 24l8 -4l-8 -22q-40 -109 -121.5 -168t-193.5 -59q-169 0 -274 125.5 t-105 326.5q0 203 114 330t298 127q-78 53 -78 160q0 106 98.5 181t237.5 75q166 0 256.5 -113t93.5 -324h233l-12 -32h-221v-627q0 -71 22 -107q24 -49 93 -49q61 0 131 70l8 -6q-31 -63 -87 -100t-120 -37q-68 0 -117 36q-34 25 -48.5 63.5t-14.5 102.5v656h-97l13 30h90 v129zM471 866q-95 0 -159 -80.5t-83 -216.5l398 15q6 24 6 82q0 110 -42.5 155t-119.5 45z" />
<glyph horiz-adv-x="544" d="M268 643q97 0 154 -64t57 -173q0 -147 -88.5 -263t-238.5 -172l-7 13q95 61 141.5 128t55.5 162q-39 -45 -100 -45q-86 0 -137.5 54.5t-51.5 144.5q0 95 60 155t155 60zM262 623q-38 0 -60 -49t-22 -128q0 -89 24 -136.5t70 -47.5q43 0 70 43q10 33 10 123 q0 85 -25.5 140t-66.5 55z" />
<glyph horiz-adv-x="544" d="M268 1434q97 0 154 -64.5t57 -173.5q0 -147 -88 -262.5t-239 -171.5l-7 12q95 61 141.5 128.5t55.5 162.5q-39 -45 -100 -45q-86 0 -137.5 54.5t-51.5 144.5q0 95 60 155t155 60zM262 1413q-38 0 -60 -48.5t-22 -127.5q0 -89 24 -136.5t70 -47.5q43 0 70 43q10 33 10 123 q0 85 -25.5 139.5t-66.5 54.5z" />
<glyph horiz-adv-x="946" d="M469 889q180 0 283.5 -125t103.5 -340q0 -291 -184.5 -522t-503.5 -338l-8 10q221 110 338.5 264t152.5 379l-8 4q-77 -96 -217 -96q-154 0 -252 106.5t-98 272.5q0 167 110.5 276t282.5 109zM465 862q-91 0 -144 -90t-53 -242q0 -168 57 -268t154 -100q49 0 94 25.5 t74 70.5q21 105 21 188q0 198 -53 307t-150 109z" />
<glyph horiz-adv-x="980" d="M584 745q137 -85 203.5 -180.5t66.5 -208.5q0 -167 -106 -278t-265 -111q-154 0 -257 99t-103 245q0 109 69.5 193t217.5 155q-129 80 -190.5 163.5t-61.5 181.5q0 145 96.5 238t245.5 93q143 0 235 -82t92 -209q0 -96 -59 -169t-184 -130zM563 756q51 54 80 136.5 t29 178.5q0 240 -170 240q-88 0 -138.5 -55t-50.5 -150q0 -103 58 -184t192 -166zM428 645q-127 -103 -127 -321q0 -155 55.5 -243.5t153.5 -88.5q88 0 140 69.5t52 186.5q0 125 -63 216.5t-211 180.5z" />
<glyph horiz-adv-x="561" d="M332 1159q87 -52 124.5 -96.5t37.5 -104.5q0 -79 -64 -133.5t-156 -54.5q-87 0 -146.5 48.5t-59.5 117.5q0 50 42 95t115 71q-71 40 -103 79.5t-32 94.5q0 68 55 113t138 45q77 0 126.5 -37t49.5 -94q0 -42 -35.5 -83t-91.5 -61zM315 1169q43 43 43 131q0 50 -21.5 81.5 t-57.5 31.5q-35 0 -56.5 -28t-21.5 -70q0 -97 114 -146zM242 1092q-52 -39 -52 -152q0 -68 24.5 -108.5t66.5 -40.5q41 0 66.5 34.5t25.5 87.5q0 109 -131 179z" />
<glyph horiz-adv-x="559" d="M332 369q87 -52 124.5 -96.5t37.5 -104.5q0 -79 -64 -133.5t-156 -54.5q-87 0 -146.5 48t-59.5 117q0 50 42 95t115 71q-71 40 -103 79.5t-32 94.5q0 68 55 113t138 45q77 0 126.5 -37t49.5 -94q0 -42 -35.5 -82.5t-91.5 -60.5zM315 379q43 43 43 131q0 50 -21.5 81.5 t-57.5 31.5q-35 0 -56.5 -28.5t-21.5 -70.5q0 -96 114 -145zM242 301q-52 -39 -52 -151q0 -68 24.5 -109t66.5 -41q41 0 66.5 35t25.5 88q0 108 -131 178z" />
<glyph horiz-adv-x="393" d="M156 25v528h-95v10q72 7 113.5 28.5t77.5 67.5l10 -2v-632l84 -9v-16h-285v16z" />
<glyph horiz-adv-x="1112" d="M250 1380l-168 17v16h504v-16l-178 -17v-1351h372q50 0 72 14.5t41 60.5l135 347l23 -5l-58 -446h-911v16l168 17v1347z" />
<glyph horiz-adv-x="382" d="M143 807v528h-94v11q72 7 113.5 28.5t77.5 67.5l10 -2v-633l84 -8v-17h-285v17z" />
<glyph horiz-adv-x="694" d="M416 885l35 -13v-825l194 -33v-14h-536v14l208 33v647h-202v15q80 14 147.5 55.5t153.5 120.5z" />
<glyph horiz-adv-x="948" d="M707 0h-601l-6 20q240 205 342.5 339.5t102.5 248.5q0 78 -43 126t-113 48q-73 0 -143 -54.5t-113 -145.5l-14 6q39 134 138 217.5t214 83.5q98 0 171 -72t73 -172q0 -97 -86 -197t-330 -284l4 -6h420q74 90 125 190l16 -6l-121 -375h-14z" />
<glyph horiz-adv-x="546" d="M453 782h-402l-2 9l96 94q189 186 189 350q0 70 -31 108.5t-88 38.5q-87 0 -131 -90l-16 8q26 65 76.5 99.5t117.5 34.5q84 0 141.5 -52t57.5 -127q0 -54 -38 -107.5t-167 -182.5l-80 -80h213q30 0 42 8t18 33l14 57l14 -2z" />
<glyph horiz-adv-x="548" d="M455 0h-402l-2 8l96 94q189 186 189 351q0 70 -31 108.5t-88 38.5q-87 0 -131 -90l-16 8q26 64 76 98.5t118 34.5q85 0 142 -51.5t57 -126.5q0 -54 -38 -108t-167 -183l-80 -80h213q30 0 42 8t18 33l14 58l14 -2z" />
<glyph horiz-adv-x="520" d="M158 530l-19 -131q42 13 88 13q101 0 163.5 -55t62.5 -146q0 -97 -68.5 -164t-169.5 -67q-68 0 -117 33.5t-49 80.5q0 20 11 31.5t30 11.5q21 0 33.5 -14t18.5 -34t13 -40.5t25.5 -34.5t48.5 -14q49 0 76 46.5t27 123.5q0 75 -32.5 116.5t-94.5 41.5q-50 0 -92 -33l-9 2 l50 334h260q10 14 20 33l8 -5l-32 -129h-252z" />
<glyph horiz-adv-x="520" d="M158 1319l-19 -131q39 12 88 12q101 0 163.5 -55t62.5 -146q0 -97 -68.5 -164t-169.5 -67q-68 0 -117 34t-49 81q0 20 11 31.5t30 11.5q21 0 33.5 -14t18.5 -34.5t13 -41t25.5 -34.5t48.5 -14q49 0 76 46.5t27 123.5q0 75 -32.5 116.5t-94.5 41.5q-50 0 -92 -33l-9 2 l50 334h260q10 14 20 33l8 -4l-32 -129h-252z" />
<glyph horiz-adv-x="811" d="M281 733l-45 -268q232 -54 359.5 -179.5t127.5 -301.5q0 -180 -125.5 -298t-318.5 -118q-94 0 -156 30.5t-62 77.5q0 24 16 40t40 16q21 0 39.5 -14t34 -34.5t33 -41t44.5 -34.5t60 -14q97 0 158 86.5t61 221.5q0 324 -375 403l98 563h375l37 66l10 -6l-61 -195h-350z " />
<glyph horiz-adv-x="1368" d="M487 889h9q-80 52 -80 160q0 106 98.5 181t237.5 75q166 0 256.5 -113t93.5 -324h233l-12 -32h-221v-627q0 -71 22 -107q24 -49 93 -49q61 0 131 70l8 -6q-31 -63 -87 -100t-120 -37q-68 0 -117 36q-34 25 -48.5 63.5t-14.5 102.5v654h-109l12 32h97v129 q0 146 -54.5 216.5t-169.5 70.5q-119 0 -193.5 -67.5t-74.5 -174.5q0 -65 22.5 -107.5t61.5 -51.5q89 -21 144 -66.5t55 -105.5q0 -35 -20.5 -56.5t-55.5 -21.5q-36 0 -54.5 24t-25.5 58.5t-15.5 69.5t-35 59t-74.5 24q-113 0 -186.5 -116.5t-73.5 -296.5 q0 -178 76.5 -276.5t214.5 -98.5q148 0 248 129l18 24l8 -4l-8 -22q-40 -108 -123.5 -167.5t-195.5 -59.5q-164 0 -269.5 124.5t-105.5 319.5q0 203 113.5 334t291.5 131z" />
<glyph horiz-adv-x="1779" d="M487 889h9q-80 52 -80 160q0 106 98.5 181t237.5 75q169 0 259.5 -116t90.5 -331v-115h8q43 68 114 107t150 39q140 0 231 -121t91 -307q0 -212 -117.5 -346.5t-302.5 -134.5q-89 0 -168 36v-458l184 -23v-14h-442v16l125 17v1443q0 287 -230 287q-119 0 -193.5 -67.5 t-74.5 -174.5q0 -65 22.5 -107.5t61.5 -51.5q89 -21 144 -66.5t55 -105.5q0 -35 -20.5 -56.5t-55.5 -21.5q-36 0 -54.5 24t-25.5 58.5t-15.5 69.5t-35 59t-74.5 24q-113 0 -186.5 -116.5t-73.5 -296.5q0 -178 76.5 -276.5t214.5 -98.5q149 0 248 129l18 24l8 -4l-8 -22 q-40 -107 -124.5 -167t-194.5 -60q-164 0 -269.5 124.5t-105.5 319.5q0 203 113.5 334t291.5 131zM1286 0q115 0 187.5 119.5t72.5 310.5q0 181 -68 289t-182 108q-65 0 -115 -32.5t-73 -89.5v-560q0 -58 53.5 -101.5t124.5 -43.5z" />
<glyph horiz-adv-x="866" d="M250 201l-4 16q154 63 237.5 162t83.5 219q0 86 -41.5 135t-113.5 49q-75 0 -144.5 -52t-103.5 -134l-14 6q35 126 130 206.5t209 80.5q103 0 174.5 -66t71.5 -161q0 -168 -272 -338v-9q144 -26 226.5 -113t82.5 -212q0 -114 -65.5 -211.5t-177.5 -155t-242 -57.5 q-97 0 -158 30.5t-61 77.5q0 24 15 39t40 15q26 0 49.5 -21t41 -46t53 -46t83.5 -21q104 0 173 89.5t69 224.5t-69 218t-179 83q-24 0 -94 -8z" />
<glyph horiz-adv-x="524" d="M172 1098l-8 16q139 56 139 172q0 45 -22 70.5t-62 25.5q-77 0 -121 -100l-16 8q57 144 209 144q56 0 90.5 -32.5t34.5 -80.5q0 -54 -35 -99t-94 -67v-8q73 -1 122.5 -51.5t49.5 -122.5q0 -85 -67.5 -145t-164.5 -60q-70 0 -120 34t-50 81q0 45 41 45q18 0 28.5 -13.5 t31.5 -60.5q14 -41 25.5 -53.5t37.5 -12.5q55 0 84 39t29 111q0 74 -30.5 121t-78.5 47q-25 0 -53 -8z" />
<glyph horiz-adv-x="524" d="M172 309l-8 17q139 56 139 172q0 45 -22 70.5t-62 25.5q-77 0 -121 -100l-16 8q56 143 209 143q54 0 89.5 -33.5t35.5 -85.5q0 -50 -35.5 -93.5t-93.5 -65.5v-9q73 -1 122.5 -51.5t49.5 -122.5q0 -85 -67.5 -144.5t-164.5 -59.5q-70 0 -120 33.5t-50 80.5q0 45 41 45 q18 0 28.5 -13t31.5 -60q14 -41 25.5 -53.5t37.5 -12.5q55 0 84 39t29 111q0 74 -30.5 120.5t-78.5 46.5q-25 0 -53 -8z" />
<glyph horiz-adv-x="1251" d="M567 1391h-237q-48 0 -70.5 -15.5t-44.5 -62.5l-145 -316l-17 4l84 445h13q45 -20 76 -26.5t81 -6.5h660q50 0 81 6.5t76 26.5h13l49 -445l-17 -4l-131 316q-19 47 -40.5 62.5t-69.5 15.5h-203v-1358l221 -17v-16h-600v16l221 17v1358z" />
<glyph horiz-adv-x="557" d="M305 25v125h-276l-2 6l366 503l19 -2v-430h80v-77h-80v-125l80 -9v-16h-281v16zM305 225v275h-8l-195 -269l2 -6h201z" />
<glyph horiz-adv-x="557" d="M305 807v125h-276l-2 6l366 504l19 -2v-430h80v-78h-80v-125l80 -8v-17h-281v17zM305 1008v274h-8l-195 -268l2 -6h201z" />
<glyph horiz-adv-x="942" d="M537 -371v371h-500l-8 12l647 862l14 -10v-758h174v-106h-174v-371h-153zM537 106v527h-9l-387 -518l2 -9h394z" />
<glyph horiz-adv-x="1662" d="M401 889q25 0 37 -2q-78 50 -78 160q0 107 86.5 182.5t208.5 75.5q155 0 242.5 -109t87.5 -307v-146h8q44 68 116 107t151 39q138 0 228.5 -121.5t90.5 -308.5q0 -211 -117.5 -345t-302.5 -134q-89 0 -168 36v-458l185 -23v-14h-443v16l125 17v1443q0 287 -209 287 q-100 0 -163.5 -68t-63.5 -176q0 -65 22.5 -107.5t61.5 -51.5q53 -10 80 -21v-227h-23q-28 123 -72.5 178t-117.5 55q-68 0 -109 -41.5t-41 -111.5q0 -50 22 -86.5t57 -59.5t77.5 -42.5t85 -41.5t77.5 -49.5t57 -74.5t22 -109q0 -124 -80 -197t-215 -73q-112 0 -215 36 l-11 267h25q22 -143 73 -212t136 -69q75 0 120.5 48t45.5 126q0 52 -22 91t-57.5 63.5t-78 45t-85 43t-78 50t-57.5 73t-22 105.5q0 116 78.5 179t222.5 63zM1174 0q111 0 183.5 121.5t72.5 308.5q0 181 -67.5 289t-180.5 108q-63 0 -114.5 -32.5t-76.5 -89.5v-560 q0 -58 54.5 -101.5t128.5 -43.5z" />
<glyph horiz-adv-x="446" d="M119 631h295l6 -6q-71 -176 -104 -272.5t-99 -317.5q-7 -25 -25.5 -40t-39.5 -15q-26 0 -40 16t-14 39q0 14 6 26l246 474h-260q-23 -33 -33 -64l-10 4l62 184l8 -2q0 -18 2 -26z" />
<glyph horiz-adv-x="442" d="M115 1419h295l6 -6q-71 -176 -104 -272.5t-99 -317.5q-7 -25 -26 -40t-40 -15q-26 0 -39.5 15.5t-13.5 39.5q0 15 6 27l246 473h-260q-24 -34 -33 -63l-10 4l61 184l9 -2q0 -19 2 -27z" />
<glyph horiz-adv-x="862" d="M207 868h641l8 -6q-179 -331 -244 -488.5t-241 -678.5q-37 -103 -103 -103q-35 0 -55 24t-20 65q0 80 71 202l498 846h-594l-107 -156l-10 9l148 338l8 -5v-47z" />
<glyph horiz-adv-x="993" d="M504 -33q-180 0 -283.5 130.5t-103.5 355.5q0 298 184.5 534t503.5 346l8 -10q-221 -114 -338.5 -273t-152.5 -391l8 -4q75 97 217 97q154 0 252 -106.5t98 -272.5q0 -177 -110.5 -291.5t-282.5 -114.5zM508 -6q91 0 144 95.5t53 256.5q0 168 -57.5 268.5t-153.5 100.5 q-49 0 -93.5 -26t-74.5 -71q-21 -105 -21 -188q0 -207 53 -321.5t150 -114.5z" />
<glyph horiz-adv-x="1345" d="M565 1380l133 66h9l505 -1409l168 -21v-16h-501v16l168 21l-189 524h-512l-158 -452q-8 -21 -8 -37q0 -22 14 -32t48 -13l125 -11v-16h-437v16l115 11q53 5 73.5 20t37.5 62l428 1218zM600 1282l-242 -688h488z" />
<glyph horiz-adv-x="626" d="M313 643q103 0 174.5 -97t71.5 -235t-71.5 -234.5t-174.5 -96.5t-174 96.5t-71 234.5t71 235t174 97zM197 311q0 -311 116 -311q117 0 117 311q0 312 -117 312q-116 0 -116 -312z" />
<glyph horiz-adv-x="630" d="M315 1434q103 0 174.5 -97t71.5 -235t-71.5 -235t-174.5 -97t-174 97t-71 235t71 235t174 97zM199 1102q0 -311 116 -311q117 0 117 311t-117 311q-116 0 -116 -311z" />
<glyph horiz-adv-x="1093" d="M985 434q0 -196 -124.5 -325t-313.5 -129t-313.5 129t-124.5 325t124.5 325.5t313.5 129.5t313.5 -129.5t124.5 -325.5zM547 805q-164 0 -257 -99t-93 -274q0 -168 93.5 -267t256.5 -99t256.5 98t93.5 266q0 177 -93 276t-257 99z" />
<glyph horiz-adv-x="544" d="M276 770q-97 0 -153.5 64.5t-56.5 173.5q0 147 88 262.5t239 171.5l6 -12q-95 -61 -141 -128t-55 -163q39 45 100 45q86 0 137.5 -54.5t51.5 -144.5q0 -95 -60.5 -155t-155.5 -60zM283 791q38 0 60 48.5t22 127.5q0 89 -24.5 136.5t-70.5 47.5q-42 0 -69 -43 q-11 -36 -11 -123q0 -85 26 -139.5t67 -54.5z" />
<glyph horiz-adv-x="544" d="M276 -20q-97 0 -153.5 64t-56.5 173q0 147 88 262.5t239 171.5l6 -12q-95 -61 -141 -128t-55 -163q39 45 100 45q86 0 137.5 -54t51.5 -144q0 -95 -60.5 -155t-155.5 -60zM283 0q38 0 60 48.5t22 127.5q0 89 -24.5 136.5t-70.5 47.5q-42 0 -69 -43q-11 -36 -11 -122 q0 -85 26 -140t67 -55z" />
</font>
</defs>
</svg>
